<svg xmlns="http://www.w3.org/2000/svg" xmlns:xlink="http://www.w3.org/1999/xlink" width="1080" zoomAndPan="magnify" viewBox="0 0 810 809.999993" height="1080" preserveAspectRatio="xMidYMid meet" version="1.0"><defs><clipPath id="d4492da458"><path d="M 12.472656 108.691406 L 797 108.691406 L 797 690.71875 L 12.472656 690.71875 Z M 12.472656 108.691406 " clip-rule="nonzero"/></clipPath><clipPath id="d2a22f7ed9"><path d="M 797.527344 108.691406 L 12.472656 108.691406 L 157.980469 399.703125 L 12.472656 690.71875 L 797.527344 690.71875 L 652.019531 399.703125 Z M 797.527344 108.691406 " clip-rule="nonzero"/></clipPath><clipPath id="597062db48"><path d="M 16.980469 108.691406 L 793 108.691406 L 793 690.71875 L 16.980469 690.71875 Z M 16.980469 108.691406 " clip-rule="nonzero"/></clipPath><clipPath id="db78e2c880"><path d="M 599.011719 108.691406 L 16.980469 108.691406 L 210.988281 690.71875 L 793.019531 690.71875 Z M 599.011719 108.691406 " clip-rule="nonzero"/></clipPath><clipPath id="3541293edc"><path d="M 94.726562 110 L 714.976562 110 L 714.976562 701.191406 L 94.726562 701.191406 Z M 94.726562 110 " clip-rule="nonzero"/></clipPath></defs><g clip-path="url(#d4492da458)"><g clip-path="url(#d2a22f7ed9)"><path fill="#24acad" d="M 12.472656 108.691406 L 796.851562 108.691406 L 796.851562 690.71875 L 12.472656 690.71875 Z M 12.472656 108.691406 " fill-opacity="1" fill-rule="nonzero"/></g></g><g clip-path="url(#597062db48)"><g clip-path="url(#db78e2c880)"><path fill="#166969" d="M 16.980469 108.691406 L 792.261719 108.691406 L 792.261719 690.71875 L 16.980469 690.71875 Z M 16.980469 108.691406 " fill-opacity="1" fill-rule="nonzero"/></g></g><g clip-path="url(#3541293edc)"><path fill="#ffffff" d="M 228.089844 317.089844 L 228.089844 300.3125 L 228.453125 300.191406 L 240.371094 312.105469 C 244.625 316.359375 252.042969 316.359375 256.296875 312.105469 L 283.777344 284.625 C 288.03125 280.25 288.03125 273.199219 283.777344 268.820312 L 271.859375 256.90625 L 271.980469 256.539062 L 288.761719 256.539062 C 294.960938 256.539062 299.949219 251.554688 299.949219 245.355469 L 299.949219 206.445312 C 299.949219 200.246094 294.960938 195.261719 288.761719 195.261719 L 271.980469 195.261719 L 271.859375 194.894531 L 283.777344 182.980469 C 288.03125 178.601562 288.03125 171.550781 283.777344 167.171875 L 256.296875 139.695312 C 252.042969 135.4375 244.625 135.4375 240.371094 139.695312 L 228.453125 151.609375 C 228.332031 151.609375 228.210938 151.488281 228.089844 151.488281 L 228.089844 134.710938 C 228.089844 128.507812 223.105469 123.523438 216.902344 123.523438 L 177.996094 123.523438 C 171.792969 123.523438 166.808594 128.507812 166.808594 134.710938 L 166.808594 151.488281 C 166.6875 151.488281 166.566406 151.609375 166.566406 151.609375 L 154.527344 139.695312 C 150.273438 135.4375 142.855469 135.4375 138.722656 139.695312 L 111.242188 167.171875 C 106.867188 171.308594 106.867188 178.84375 111.242188 183.101562 C 111.242188 183.101562 123.160156 195.015625 123.160156 195.015625 L 122.914062 195.261719 L 106.136719 195.261719 C 99.9375 195.261719 94.949219 200.246094 94.949219 206.445312 L 94.949219 245.355469 C 94.949219 251.554688 99.9375 256.539062 106.136719 256.539062 L 122.914062 256.539062 L 123.039062 256.90625 L 111.121094 268.820312 C 106.746094 272.953125 106.746094 280.492188 111.121094 284.75 C 111.121094 284.75 138.601562 312.226562 138.601562 312.226562 C 142.855469 316.484375 150.273438 316.484375 154.40625 312.226562 L 166.324219 300.3125 C 166.445312 300.3125 166.566406 300.433594 166.6875 300.433594 L 166.6875 317.210938 C 166.6875 323.414062 171.671875 328.398438 177.875 328.398438 L 216.78125 328.398438 C 222.984375 328.398438 228.089844 323.292969 228.089844 317.089844 Z M 214.835938 315.144531 L 179.941406 315.144531 L 179.941406 295.8125 C 180.0625 289.367188 171.914062 288.882812 167.902344 286.449219 C 165.351562 285.234375 162.308594 285.722656 160.363281 287.667969 L 146.625 301.40625 L 121.941406 276.722656 L 135.683594 262.984375 C 140.304688 258.484375 134.953125 252.527344 133.859375 247.785156 C 133.007812 245.109375 130.453125 243.285156 127.65625 243.285156 L 108.203125 243.285156 L 108.203125 208.511719 L 127.535156 208.511719 C 134.101562 208.511719 134.34375 200.851562 136.898438 196.476562 C 138.113281 193.921875 137.628906 190.882812 135.683594 188.9375 L 121.941406 175.078125 L 146.625 150.394531 L 160.363281 164.132812 C 165.105469 168.753906 170.335938 163.648438 175.5625 162.1875 C 178.238281 161.214844 179.941406 158.785156 179.941406 155.988281 L 179.941406 136.65625 L 214.835938 136.65625 L 214.835938 155.988281 C 214.835938 162.554688 222.617188 162.917969 226.996094 165.347656 C 229.546875 166.566406 232.585938 166.078125 234.535156 164.011719 L 248.152344 150.394531 L 272.832031 175.078125 L 259.09375 188.816406 C 254.472656 193.4375 259.703125 198.90625 260.917969 204.015625 C 261.769531 206.6875 264.320312 208.511719 267.117188 208.511719 L 286.449219 208.511719 L 286.449219 243.410156 L 267.117188 243.410156 C 260.554688 243.410156 260.308594 251.070312 257.757812 255.445312 C 256.539062 258 257.027344 261.039062 258.972656 262.984375 L 272.710938 276.722656 L 248.152344 301.40625 L 234.410156 287.667969 C 229.667969 283.046875 224.320312 288.273438 219.214844 289.613281 C 216.539062 290.585938 214.835938 293.015625 214.835938 295.8125 Z M 244.867188 225.898438 C 244.867188 199.757812 223.589844 178.480469 197.449219 178.480469 C 134.589844 180.667969 134.589844 271.128906 197.449219 273.441406 C 223.589844 273.320312 244.867188 252.042969 244.867188 225.898438 Z M 197.449219 260.1875 C 152.21875 258.730469 152.097656 193.070312 197.449219 191.613281 C 242.679688 193.070312 242.679688 258.730469 197.449219 260.1875 Z M 601.96875 487.3125 L 569.386719 487.3125 C 556.617188 452.417969 524.15625 426.640625 487.191406 424.816406 C 487.191406 424.816406 455.945312 411.320312 455.945312 411.320312 C 479.773438 400.132812 492.664062 379.707031 492.664062 352.351562 C 492.664062 352.351562 492.664062 291.191406 492.664062 291.191406 C 492.664062 232.832031 434.058594 189.300781 378.007812 206.6875 C 343.960938 217.390625 319.035156 248.878906 315.753906 284.261719 C 313.566406 306.753906 315.390625 329.734375 315.390625 352.230469 C 315.390625 379.953125 327.914062 400.011719 351.863281 411.199219 L 320.375 424.816406 C 283.410156 426.761719 250.949219 452.539062 238.300781 487.3125 L 205.351562 487.3125 C 192.828125 486.949219 183.101562 500.566406 187.480469 512.359375 C 187.480469 512.359375 239.152344 663.613281 239.152344 663.613281 L 232.710938 663.613281 C 226.875 663.613281 222.132812 668.355469 222.132812 674.191406 L 222.132812 690.730469 C 222.132812 696.566406 226.875 701.308594 232.710938 701.308594 L 575.949219 701.308594 C 581.785156 701.308594 586.527344 696.566406 586.527344 690.730469 L 586.527344 674.191406 C 586.527344 668.355469 581.785156 663.613281 575.949219 663.613281 L 568.167969 663.613281 L 619.84375 512.359375 C 624.222656 500.566406 614.492188 486.949219 601.96875 487.3125 Z M 488.652344 438.3125 C 517.953125 440.378906 543.488281 460.5625 555.160156 487.3125 L 467.859375 487.3125 L 469.5625 483.785156 C 472.480469 477.097656 464.089844 473.207031 460.320312 468.832031 C 469.683594 458.738281 479.167969 448.527344 488.652344 438.3125 Z M 474.667969 433.8125 C 465.671875 443.417969 455.09375 454.96875 446.09375 464.574219 C 440.136719 471.992188 451.203125 477.464844 455.335938 482.328125 L 453.027344 487.191406 L 433.328125 487.191406 L 446.824219 427.855469 C 446.945312 427.25 446.945312 426.640625 446.945312 426.03125 L 447.191406 422.019531 Z M 375.695312 422.871094 C 375.453125 422.75 375.210938 422.628906 374.964844 422.507812 C 376.789062 414.605469 381.53125 393.8125 383.355469 385.542969 C 397.21875 391.988281 410.957031 391.988281 424.695312 385.300781 L 432.355469 420.5625 C 414.847656 429.558594 393.933594 430.289062 375.695312 422.871094 Z M 431.503906 435.636719 L 419.832031 487.3125 L 387.734375 487.3125 L 376.425781 437.21875 C 394.300781 443.054688 413.996094 442.445312 431.503906 435.636719 Z M 419.46875 373.265625 C 389.679688 389.679688 351.621094 350.40625 344.570312 322.925781 C 344.328125 322.195312 342.625 315.753906 342.746094 315.632812 C 345.054688 314.902344 347.488281 313.929688 349.433594 313.199219 C 362.808594 308.578125 375.574219 302.136719 387.367188 294.230469 C 390.285156 292.285156 420.683594 268.457031 419.710938 267.605469 C 433.695312 280.613281 449.621094 291.921875 466.765625 300.3125 C 467.128906 331.4375 447.675781 360.742188 419.46875 373.265625 Z M 479.289062 352.351562 C 479.289062 377.761719 466.765625 394.664062 441.960938 402.6875 L 436.734375 378.980469 C 459.957031 363.78125 475.882812 338.613281 479.289062 311.132812 Z M 440.257812 235.261719 C 441.597656 232.464844 442.691406 229.789062 443.90625 227.238281 C 465.792969 240.734375 479.773438 265.660156 479.410156 291.679688 C 460.441406 283.53125 443.054688 271.496094 427.980469 257.269531 C 432.355469 250.097656 436.613281 242.800781 440.257812 235.261719 Z M 328.761719 285.476562 C 333.382812 236.601562 385.667969 202.3125 431.992188 221.15625 C 418.738281 255.6875 390.410156 280.859375 356.972656 295.449219 C 354.90625 296.421875 328.398438 306.632812 328.398438 305.539062 C 328.277344 298.972656 328.15625 292.042969 328.761719 285.476562 Z M 328.519531 352.351562 L 328.519531 319.035156 L 329.734375 318.792969 C 334.476562 342.503906 350.164062 366.210938 371.199219 379.101562 C 371.199219 379.34375 365.847656 402.324219 365.847656 402.566406 C 341.164062 394.542969 328.519531 377.640625 328.519531 352.351562 Z M 360.375 422.019531 C 360.496094 423.113281 360.621094 426.882812 360.742188 427.976562 C 360.742188 427.976562 374.117188 487.433594 374.117188 487.433594 L 354.417969 487.433594 L 352.109375 482.570312 C 356.363281 477.707031 367.550781 472.234375 361.347656 464.820312 C 351.863281 454.605469 342.257812 444.269531 332.777344 433.9375 Z M 268.089844 463.480469 C 281.34375 449.011719 299.582031 439.773438 319.035156 438.3125 C 328.398438 448.527344 337.882812 458.738281 347.367188 468.953125 C 343.71875 473.332031 335.207031 477.097656 338.246094 483.910156 C 338.246094 483.910156 339.949219 487.433594 339.949219 487.433594 L 252.648438 487.433594 C 256.539062 478.4375 261.769531 470.289062 268.089844 463.480469 Z M 573.277344 676.867188 L 573.277344 688.175781 L 235.261719 688.175781 L 235.261719 676.867188 Z M 607.320312 508.105469 L 554.1875 663.613281 L 253.015625 663.613281 C 253.015625 663.613281 199.878906 508.105469 199.878906 508.105469 C 199.273438 506.28125 199.515625 504.457031 200.609375 502.875 C 201.703125 501.296875 203.40625 500.445312 205.230469 500.445312 L 601.96875 500.445312 C 605.738281 500.445312 608.65625 504.457031 607.320312 508.105469 Z M 405 544.335938 C 377.640625 543 355.878906 568.410156 363.78125 594.308594 C 374.964844 631.636719 432.234375 632.488281 444.636719 595.527344 C 453.390625 569.992188 432.234375 543.851562 405 544.335938 Z M 432.113281 591.390625 C 417.644531 628.109375 357.578125 604.28125 380.4375 568.410156 C 397.582031 545.675781 441.839844 561.117188 432.113281 591.390625 Z M 656.078125 163.769531 C 620.332031 130.695312 559.292969 153.796875 554.550781 202.433594 C 552.726562 218.847656 557.46875 234.898438 567.683594 247.664062 C 575.464844 257.269531 579.476562 267.96875 579.476562 278.789062 L 579.476562 304.808594 C 580.570312 350.527344 649.875 350.648438 651.089844 304.808594 C 651.089844 285.597656 648.417969 263.714844 663.007812 247.664062 C 683.191406 223.226562 680.03125 184.4375 656.078125 163.769531 Z M 637.839844 304.6875 C 637.59375 332.898438 592.972656 332.898438 592.609375 304.6875 C 592.609375 304.6875 592.609375 290.460938 592.609375 290.460938 L 637.839844 290.460938 Z M 652.671875 239.273438 C 643.433594 250.824219 638.324219 263.957031 637.839844 277.210938 L 592.609375 277.210938 C 592.242188 263.835938 587.136719 250.824219 577.894531 239.273438 C 569.871094 229.304688 566.101562 216.660156 567.5625 203.769531 C 570.964844 165.957031 619.601562 147.476562 647.199219 173.496094 C 666.046875 189.789062 668.722656 220.308594 652.671875 239.273438 Z M 544.824219 280.980469 C 538.625 274.414062 548.472656 268.578125 552.363281 264.199219 C 554.917969 261.648438 559.171875 261.648438 561.726562 264.199219 C 564.277344 266.753906 564.277344 271.007812 561.726562 273.5625 C 557.226562 277.332031 551.390625 287.179688 544.824219 280.980469 Z M 685.867188 139.9375 C 688.417969 142.492188 688.417969 146.746094 685.867188 149.300781 C 681.488281 153.070312 675.652344 162.917969 669.085938 156.839844 C 662.886719 150.273438 672.734375 144.4375 676.625 140.058594 C 679.058594 137.382812 683.3125 137.382812 685.867188 139.9375 Z M 515.523438 210.457031 C 515.523438 206.8125 518.441406 203.894531 522.085938 203.894531 L 532.664062 203.894531 C 536.3125 203.894531 539.230469 206.8125 539.230469 210.457031 C 539.230469 214.105469 536.3125 217.023438 532.664062 217.023438 L 522.085938 217.023438 C 518.5625 217.023438 515.523438 214.105469 515.523438 210.457031 Z M 715.046875 210.457031 C 715.046875 214.105469 712.128906 217.023438 708.480469 217.023438 L 697.902344 217.023438 C 694.253906 217.023438 691.335938 214.105469 691.335938 210.457031 C 691.335938 206.8125 694.253906 203.894531 697.902344 203.894531 L 708.480469 203.894531 C 712.128906 203.894531 715.046875 206.8125 715.046875 210.457031 Z M 544.824219 149.300781 C 538.746094 143.21875 547.984375 133.859375 554.1875 139.9375 C 554.1875 139.9375 561.726562 147.476562 561.726562 147.476562 C 567.804688 153.554688 558.5625 162.917969 552.363281 156.839844 C 552.242188 156.714844 544.824219 149.300781 544.824219 149.300781 Z M 685.867188 271.617188 C 691.945312 277.695312 682.703125 287.058594 676.503906 280.980469 C 676.503906 280.980469 668.964844 273.441406 668.964844 273.441406 C 662.886719 267.359375 672.125 258 678.328125 264.078125 C 678.328125 264.199219 685.867188 271.617188 685.867188 271.617188 Z M 608.65625 127.902344 L 608.65625 117.324219 C 608.65625 108.691406 621.789062 108.691406 621.910156 117.324219 C 621.910156 117.324219 621.910156 127.902344 621.910156 127.902344 C 621.910156 136.53125 608.78125 136.53125 608.65625 127.902344 Z M 608.65625 127.902344 " fill-opacity="1" fill-rule="nonzero"/></g></svg>