<svg xmlns="http://www.w3.org/2000/svg" xmlns:xlink="http://www.w3.org/1999/xlink" width="1080" zoomAndPan="magnify" viewBox="0 0 810 809.999993" height="1080" preserveAspectRatio="xMidYMid meet" version="1.0"><defs><clipPath id="e5d8382b57"><path d="M 203.652344 255.722656 L 606 255.722656 L 606 554.277344 L 203.652344 554.277344 Z M 203.652344 255.722656 " clip-rule="nonzero"/></clipPath><clipPath id="86440cc4d2"><path d="M 606.347656 255.722656 L 203.652344 255.722656 L 278.289062 405 L 203.652344 554.277344 L 606.347656 554.277344 L 531.710938 405 Z M 606.347656 255.722656 " clip-rule="nonzero"/></clipPath><clipPath id="c02a008728"><path d="M 205.964844 255.722656 L 604 255.722656 L 604 554.277344 L 205.964844 554.277344 Z M 205.964844 255.722656 " clip-rule="nonzero"/></clipPath><clipPath id="4727f4565d"><path d="M 504.519531 255.722656 L 205.964844 255.722656 L 305.480469 554.277344 L 604.035156 554.277344 Z M 504.519531 255.722656 " clip-rule="nonzero"/></clipPath><clipPath id="eea36d882d"><path d="M 245.84375 256 L 563.84375 256 L 563.84375 559.472656 L 245.84375 559.472656 Z M 245.84375 256 " clip-rule="nonzero"/></clipPath></defs><g clip-path="url(#e5d8382b57)"><g clip-path="url(#86440cc4d2)"><path fill="#24acad" d="M 203.652344 255.722656 L 606 255.722656 L 606 554.277344 L 203.652344 554.277344 Z M 203.652344 255.722656 " fill-opacity="1" fill-rule="nonzero"/></g></g><g clip-path="url(#c02a008728)"><g clip-path="url(#4727f4565d)"><path fill="#166969" d="M 205.964844 255.722656 L 603.648438 255.722656 L 603.648438 554.277344 L 205.964844 554.277344 Z M 205.964844 255.722656 " fill-opacity="1" fill-rule="nonzero"/></g></g><g clip-path="url(#eea36d882d)"><path fill="#ffffff" d="M 314.25 362.621094 L 314.25 354.015625 L 314.4375 353.953125 L 320.550781 360.066406 C 322.734375 362.246094 326.535156 362.246094 328.71875 360.066406 L 342.816406 345.96875 C 345 343.722656 345 340.105469 342.816406 337.863281 L 336.703125 331.75 L 336.765625 331.5625 L 345.371094 331.5625 C 348.554688 331.5625 351.109375 329.003906 351.109375 325.824219 L 351.109375 305.867188 C 351.109375 302.6875 348.554688 300.128906 345.371094 300.128906 L 336.765625 300.128906 L 336.703125 299.941406 L 342.816406 293.828125 C 345 291.585938 345 287.96875 342.816406 285.722656 L 328.71875 271.625 C 326.535156 269.445312 322.734375 269.445312 320.550781 271.625 L 314.4375 277.738281 C 314.375 277.738281 314.3125 277.675781 314.25 277.675781 L 314.25 269.070312 C 314.25 265.886719 311.691406 263.332031 308.511719 263.332031 L 288.554688 263.332031 C 285.375 263.332031 282.816406 265.886719 282.816406 269.070312 L 282.816406 277.675781 C 282.753906 277.675781 282.691406 277.738281 282.691406 277.738281 L 276.515625 271.625 C 274.335938 269.445312 270.53125 269.445312 268.410156 271.625 L 254.3125 285.722656 C 252.070312 287.84375 252.070312 291.710938 254.3125 293.890625 C 254.3125 293.890625 260.425781 300.003906 260.425781 300.003906 L 260.300781 300.128906 L 251.695312 300.128906 C 248.515625 300.128906 245.957031 302.6875 245.957031 305.867188 L 245.957031 325.824219 C 245.957031 329.003906 248.515625 331.5625 251.695312 331.5625 L 260.300781 331.5625 L 260.363281 331.75 L 254.25 337.863281 C 252.007812 339.984375 252.007812 343.847656 254.25 346.03125 C 254.25 346.03125 268.347656 360.128906 268.347656 360.128906 C 270.53125 362.308594 274.335938 362.308594 276.453125 360.128906 L 282.566406 354.015625 C 282.628906 354.015625 282.691406 354.078125 282.753906 354.078125 L 282.753906 362.683594 C 282.753906 365.867188 285.3125 368.421875 288.492188 368.421875 L 308.449219 368.421875 C 311.632812 368.421875 314.25 365.804688 314.25 362.621094 Z M 307.453125 361.625 L 289.550781 361.625 L 289.550781 351.707031 C 289.613281 348.402344 285.4375 348.152344 283.378906 346.90625 C 282.066406 346.28125 280.507812 346.53125 279.511719 347.527344 L 272.464844 354.578125 L 259.800781 341.914062 L 266.851562 334.867188 C 269.21875 332.5625 266.476562 329.503906 265.914062 327.070312 C 265.476562 325.699219 264.167969 324.765625 262.734375 324.765625 L 252.753906 324.765625 L 252.753906 306.925781 L 262.671875 306.925781 C 266.039062 306.925781 266.164062 302.996094 267.472656 300.753906 C 268.097656 299.441406 267.847656 297.882812 266.851562 296.886719 L 259.800781 289.777344 L 272.464844 277.113281 L 279.511719 284.164062 C 281.945312 286.53125 284.625 283.914062 287.308594 283.164062 C 288.679688 282.664062 289.550781 281.417969 289.550781 279.984375 L 289.550781 270.066406 L 307.453125 270.066406 L 307.453125 279.984375 C 307.453125 283.351562 311.445312 283.539062 313.6875 284.785156 C 315 285.410156 316.558594 285.160156 317.554688 284.101562 L 324.542969 277.113281 L 337.203125 289.777344 L 330.15625 296.824219 C 327.785156 299.195312 330.464844 302 331.089844 304.621094 C 331.527344 305.992188 332.835938 306.925781 334.269531 306.925781 L 344.1875 306.925781 L 344.1875 324.828125 L 334.269531 324.828125 C 330.902344 324.828125 330.777344 328.757812 329.46875 331 C 328.84375 332.3125 329.09375 333.871094 330.09375 334.867188 L 337.140625 341.914062 L 324.542969 354.578125 L 317.492188 347.527344 C 315.0625 345.160156 312.316406 347.839844 309.699219 348.527344 C 308.324219 349.027344 307.453125 350.273438 307.453125 351.707031 Z M 322.855469 315.847656 C 322.855469 302.4375 311.941406 291.523438 298.535156 291.523438 C 266.289062 292.644531 266.289062 339.046875 298.535156 340.230469 C 311.941406 340.167969 322.855469 329.253906 322.855469 315.847656 Z M 298.535156 333.433594 C 275.332031 332.683594 275.269531 299.007812 298.535156 298.257812 C 321.734375 299.007812 321.734375 332.683594 298.535156 333.433594 Z M 506.035156 449.9375 L 489.320312 449.9375 C 482.769531 432.039062 466.117188 418.816406 447.15625 417.878906 C 447.15625 417.878906 431.128906 410.957031 431.128906 410.957031 C 443.351562 405.21875 449.964844 394.742188 449.964844 380.710938 C 449.964844 380.710938 449.964844 349.335938 449.964844 349.335938 C 449.964844 319.402344 419.902344 297.074219 391.152344 305.992188 C 373.6875 311.480469 360.902344 327.632812 359.21875 345.78125 C 358.09375 357.320312 359.03125 369.109375 359.03125 380.648438 C 359.03125 394.867188 365.453125 405.15625 377.742188 410.894531 L 361.589844 417.878906 C 342.628906 418.878906 325.976562 432.101562 319.488281 449.9375 L 302.585938 449.9375 C 296.164062 449.75 291.175781 456.738281 293.417969 462.785156 C 293.417969 462.785156 319.925781 540.371094 319.925781 540.371094 L 316.621094 540.371094 C 313.625 540.371094 311.195312 542.804688 311.195312 545.796875 L 311.195312 554.28125 C 311.195312 557.273438 313.625 559.707031 316.621094 559.707031 L 492.6875 559.707031 C 495.679688 559.707031 498.113281 557.273438 498.113281 554.28125 L 498.113281 545.796875 C 498.113281 542.804688 495.679688 540.371094 492.6875 540.371094 L 488.695312 540.371094 L 515.203125 462.785156 C 517.445312 456.738281 512.457031 449.75 506.035156 449.9375 Z M 447.90625 424.804688 C 462.9375 425.863281 476.035156 436.21875 482.023438 449.9375 L 437.242188 449.9375 L 438.113281 448.128906 C 439.609375 444.699219 435.308594 442.703125 433.375 440.457031 C 438.175781 435.28125 443.042969 430.042969 447.90625 424.804688 Z M 440.734375 422.496094 C 436.117188 427.421875 430.691406 433.347656 426.078125 438.273438 C 423.019531 442.078125 428.695312 444.886719 430.816406 447.382812 L 429.632812 449.875 L 419.527344 449.875 L 426.453125 419.441406 C 426.515625 419.128906 426.515625 418.816406 426.515625 418.503906 L 426.636719 416.445312 Z M 389.964844 416.882812 C 389.839844 416.820312 389.714844 416.757812 389.589844 416.695312 C 390.527344 412.640625 392.960938 401.976562 393.894531 397.734375 C 401.003906 401.042969 408.050781 401.042969 415.101562 397.609375 L 419.03125 415.699219 C 410.046875 420.3125 399.320312 420.6875 389.964844 416.882812 Z M 418.59375 423.429688 L 412.605469 449.9375 L 396.140625 449.9375 L 390.339844 424.242188 C 399.507812 427.234375 409.613281 426.925781 418.59375 423.429688 Z M 412.417969 391.4375 C 397.136719 399.855469 377.617188 379.710938 374 365.617188 C 373.875 365.242188 373 361.9375 373.0625 361.875 C 374.25 361.5 375.496094 361 376.496094 360.625 C 383.355469 358.257812 389.902344 354.949219 395.953125 350.898438 C 397.449219 349.898438 413.042969 337.675781 412.542969 337.238281 C 419.714844 343.910156 427.886719 349.710938 436.679688 354.015625 C 436.867188 369.980469 426.886719 385.011719 412.417969 391.4375 Z M 443.105469 380.710938 C 443.105469 393.746094 436.679688 402.414062 423.957031 406.53125 L 421.273438 394.367188 C 433.1875 386.570312 441.359375 373.660156 443.105469 359.566406 Z M 423.082031 320.648438 C 423.769531 319.214844 424.332031 317.839844 424.953125 316.53125 C 436.179688 323.453125 443.351562 336.242188 443.167969 349.585938 C 433.4375 345.410156 424.519531 339.234375 416.785156 331.9375 C 419.03125 328.257812 421.210938 324.515625 423.082031 320.648438 Z M 365.890625 346.40625 C 368.261719 321.335938 395.078125 303.746094 418.84375 313.414062 C 412.042969 331.125 397.511719 344.035156 380.359375 351.519531 C 379.300781 352.019531 365.703125 357.257812 365.703125 356.695312 C 365.640625 353.328125 365.578125 349.773438 365.890625 346.40625 Z M 365.765625 380.710938 L 365.765625 363.621094 L 366.390625 363.496094 C 368.824219 375.65625 376.867188 387.820312 387.65625 394.429688 C 387.65625 394.554688 384.914062 406.34375 384.914062 406.46875 C 372.253906 402.351562 365.765625 393.683594 365.765625 380.710938 Z M 382.105469 416.445312 C 382.167969 417.007812 382.230469 418.941406 382.292969 419.503906 C 382.292969 419.503906 389.15625 450 389.15625 450 L 379.050781 450 L 377.867188 447.503906 C 380.050781 445.011719 385.785156 442.203125 382.605469 438.398438 C 377.742188 433.160156 372.8125 427.859375 367.949219 422.558594 Z M 334.769531 437.714844 C 341.566406 430.292969 350.921875 425.550781 360.902344 424.804688 C 365.703125 430.042969 370.570312 435.28125 375.433594 440.519531 C 373.5625 442.765625 369.195312 444.699219 370.757812 448.191406 C 370.757812 448.191406 371.628906 450 371.628906 450 L 326.847656 450 C 328.84375 445.386719 331.527344 441.207031 334.769531 437.714844 Z M 491.316406 547.171875 L 491.316406 552.972656 L 317.929688 552.972656 L 317.929688 547.171875 Z M 508.777344 460.601562 L 481.523438 540.371094 L 327.035156 540.371094 C 327.035156 540.371094 299.78125 460.601562 299.78125 460.601562 C 299.46875 459.667969 299.59375 458.730469 300.15625 457.921875 C 300.714844 457.109375 301.589844 456.675781 302.523438 456.675781 L 506.035156 456.675781 C 507.96875 456.675781 509.464844 458.730469 508.777344 460.601562 Z M 404.996094 479.1875 C 390.964844 478.503906 379.800781 491.539062 383.855469 504.824219 C 389.589844 523.96875 418.96875 524.40625 425.328125 505.445312 C 429.820312 492.347656 418.96875 478.941406 404.996094 479.1875 Z M 418.90625 503.324219 C 411.484375 522.160156 380.671875 509.9375 392.398438 491.539062 C 401.191406 479.875 423.894531 487.796875 418.90625 503.324219 Z M 533.789062 283.976562 C 515.453125 267.011719 484.140625 278.859375 481.710938 303.808594 C 480.773438 312.226562 483.207031 320.460938 488.445312 327.011719 C 492.4375 331.9375 494.496094 337.425781 494.496094 342.976562 L 494.496094 356.324219 C 495.058594 379.773438 530.605469 379.835938 531.230469 356.324219 C 531.230469 346.46875 529.859375 335.242188 537.34375 327.011719 C 547.695312 314.472656 546.074219 294.578125 533.789062 283.976562 Z M 524.433594 356.261719 C 524.308594 370.730469 501.417969 370.730469 501.230469 356.261719 C 501.230469 356.261719 501.230469 348.964844 501.230469 348.964844 L 524.433594 348.964844 Z M 532.042969 322.707031 C 527.300781 328.632812 524.683594 335.367188 524.433594 342.164062 L 501.230469 342.164062 C 501.042969 335.304688 498.425781 328.632812 493.683594 322.707031 C 489.570312 317.59375 487.636719 311.105469 488.382812 304.496094 C 490.128906 285.097656 515.078125 275.617188 529.234375 288.964844 C 538.902344 297.324219 540.273438 312.976562 532.042969 322.707031 Z M 476.71875 344.097656 C 473.539062 340.730469 478.589844 337.738281 480.585938 335.492188 C 481.898438 334.183594 484.078125 334.183594 485.390625 335.492188 C 486.699219 336.800781 486.699219 338.984375 485.390625 340.292969 C 483.082031 342.226562 480.089844 347.28125 476.71875 344.097656 Z M 549.066406 271.75 C 550.378906 273.0625 550.378906 275.242188 549.066406 276.554688 C 546.824219 278.488281 543.828125 283.539062 540.460938 280.421875 C 537.28125 277.050781 542.332031 274.058594 544.328125 271.8125 C 545.574219 270.441406 547.757812 270.441406 549.066406 271.75 Z M 461.691406 307.925781 C 461.691406 306.054688 463.1875 304.558594 465.058594 304.558594 L 470.484375 304.558594 C 472.355469 304.558594 473.851562 306.054688 473.851562 307.925781 C 473.851562 309.796875 472.355469 311.292969 470.484375 311.292969 L 465.058594 311.292969 C 463.25 311.292969 461.691406 309.796875 461.691406 307.925781 Z M 564.035156 307.925781 C 564.035156 309.796875 562.539062 311.292969 560.667969 311.292969 L 555.242188 311.292969 C 553.371094 311.292969 551.875 309.796875 551.875 307.925781 C 551.875 306.054688 553.371094 304.558594 555.242188 304.558594 L 560.667969 304.558594 C 562.539062 304.558594 564.035156 306.054688 564.035156 307.925781 Z M 476.71875 276.554688 C 473.601562 273.433594 478.34375 268.632812 481.523438 271.75 C 481.523438 271.75 485.390625 275.617188 485.390625 275.617188 C 488.507812 278.738281 483.769531 283.539062 480.585938 280.421875 C 480.523438 280.359375 476.71875 276.554688 476.71875 276.554688 Z M 549.066406 339.296875 C 552.1875 342.414062 547.445312 347.21875 544.265625 344.097656 C 544.265625 344.097656 540.398438 340.230469 540.398438 340.230469 C 537.28125 337.113281 542.019531 332.3125 545.199219 335.429688 C 545.199219 335.492188 549.066406 339.296875 549.066406 339.296875 Z M 509.464844 265.578125 L 509.464844 260.152344 C 509.464844 255.722656 516.199219 255.722656 516.261719 260.152344 C 516.261719 260.152344 516.261719 265.578125 516.261719 265.578125 C 516.261719 270.003906 509.527344 270.003906 509.464844 265.578125 Z M 509.464844 265.578125 " fill-opacity="1" fill-rule="nonzero"/></g></svg>