<svg xmlns="http://www.w3.org/2000/svg" xmlns:xlink="http://www.w3.org/1999/xlink" width="1080" zoomAndPan="magnify" viewBox="0 0 810 809.999993" height="1080" preserveAspectRatio="xMidYMid meet" version="1.0"><defs><clipPath id="50536c3041"><path d="M 89.539062 108.980469 L 570.570312 108.980469 L 570.570312 701 L 89.539062 701 Z M 89.539062 108.980469 " clip-rule="nonzero"/></clipPath><clipPath id="0da90d2f7e"><path d="M 249.96875 122.871094 C 274.550781 114.484375 302.667969 108.980469 330.183594 108.980469 C 357.703125 108.980469 384.179688 113.699219 408.582031 122.085938 C 409.101562 122.347656 409.621094 122.347656 410.140625 122.609375 C 501.777344 156.15625 569.273438 244.738281 570.570312 348.257812 L 570.570312 701.019531 L 89.539062 701.019531 L 89.539062 348.519531 C 90.835938 244.214844 157.292969 155.628906 249.96875 122.871094 Z M 249.96875 122.871094 " clip-rule="nonzero"/></clipPath><clipPath id="844463668c"><path d="M 214.636719 112.421875 L 720.460938 112.421875 L 720.460938 701.234375 L 214.636719 701.234375 Z M 214.636719 112.421875 " clip-rule="nonzero"/></clipPath><clipPath id="fc7d478d20"><path d="M 467.546875 112.421875 L 720.460938 259.570312 L 720.460938 553.871094 L 467.546875 701.019531 L 214.636719 553.871094 L 214.636719 259.570312 Z M 467.546875 112.421875 " clip-rule="nonzero"/></clipPath><clipPath id="cff6928aa7"><path d="M 103 112.421875 L 708 112.421875 L 708 701.171875 L 103 701.171875 Z M 103 112.421875 " clip-rule="nonzero"/></clipPath></defs><g clip-path="url(#50536c3041)"><g clip-path="url(#0da90d2f7e)"><path fill="#24acad" d="M 89.539062 108.980469 L 570.570312 108.980469 L 570.570312 700.875 L 89.539062 700.875 Z M 89.539062 108.980469 " fill-opacity="1" fill-rule="nonzero"/></g></g><g clip-path="url(#844463668c)"><g clip-path="url(#fc7d478d20)"><path fill="#166969" d="M 214.636719 112.421875 L 720.460938 112.421875 L 720.460938 701.234375 L 214.636719 701.234375 Z M 214.636719 112.421875 " fill-opacity="1" fill-rule="nonzero"/></g></g><g clip-path="url(#cff6928aa7)"><path fill="#ffffff" d="M 580.226562 418.851562 C 548.859375 418.851562 523.414062 444.417969 523.414062 475.78125 C 524.953125 545.734375 624.730469 553.070312 636.445312 484.304688 C 642.128906 450.335938 614.667969 418.617188 580.226562 418.851562 Z M 623.546875 480.515625 C 616.324219 534.488281 537.972656 530.464844 536.667969 475.78125 C 539.511719 414.945312 627.449219 419.917969 623.546875 480.515625 Z M 695.035156 505.847656 C 701.78125 505.253906 707.105469 499.574219 707.105469 492.828125 L 707.105469 458.503906 C 707.105469 451.753906 702.015625 446.191406 695.269531 445.363281 L 673.019531 443.117188 C 671.835938 439.683594 670.414062 436.25 668.757812 433.054688 L 682.84375 415.894531 C 687.222656 410.683594 686.867188 402.992188 682.015625 398.140625 L 657.75 373.996094 C 652.1875 368.3125 643.546875 369.261719 638.222656 374.703125 L 638.222656 182.488281 C 638.222656 143.90625 606.738281 112.421875 568.152344 112.421875 C 568.035156 112.421875 528.503906 112.421875 528.382812 112.421875 C 528.382812 112.421875 144.191406 112.421875 144.191406 112.421875 C 89.867188 114.316406 89.628906 192.667969 144.191406 194.679688 L 171.652344 194.679688 L 171.652344 630.949219 C 171.652344 669.535156 203.136719 701.019531 241.71875 701.019531 L 281.605469 701.019531 C 281.605469 701.019531 665.917969 701.019531 665.917969 701.019531 C 720.363281 699.125 720.363281 620.652344 665.917969 618.761719 C 665.917969 618.761719 638.222656 618.761719 638.222656 618.761719 L 638.222656 576.742188 C 643.546875 582.1875 652.304688 583.132812 657.75 577.453125 C 657.75 577.453125 682.015625 553.1875 682.015625 553.1875 C 686.75 548.335938 687.105469 540.644531 682.84375 535.554688 L 668.640625 518.273438 C 670.296875 514.960938 671.71875 511.289062 672.902344 508.09375 Z M 144.3125 181.304688 C 107.621094 180.121094 107.621094 126.980469 144.3125 125.796875 L 498.203125 125.796875 C 483.882812 140.828125 483.882812 166.511719 498.203125 181.304688 Z M 281.726562 687.761719 C 281.726562 687.761719 241.839844 687.761719 241.839844 687.761719 C 210.589844 687.761719 185.144531 662.316406 185.144531 631.070312 L 185.144531 194.679688 L 528.621094 194.679688 C 537.378906 194.679688 537.378906 181.304688 528.621094 181.304688 C 513.234375 181.304688 500.808594 168.640625 500.808594 153.492188 C 500.808594 140.117188 510.394531 128.875 522.941406 126.269531 C 525.1875 125.324219 564.722656 125.796875 568.273438 125.675781 C 599.519531 125.675781 624.964844 151.125 624.964844 182.371094 L 624.964844 385.238281 L 622.835938 387.011719 C 619.519531 385.355469 616.089844 384.054688 612.773438 382.871094 L 610.527344 360.5 C 609.695312 353.875 604.132812 348.902344 597.386719 348.902344 L 563.183594 348.902344 C 556.554688 348.902344 550.753906 353.875 550.042969 360.621094 L 547.675781 382.871094 C 544.363281 384.054688 540.929688 385.476562 537.617188 387.011719 L 520.335938 372.929688 C 515.011719 368.550781 507.316406 369.023438 502.699219 373.875 L 478.320312 398.019531 C 473.703125 402.636719 473.230469 410.449219 477.371094 415.65625 L 491.457031 432.9375 C 489.917969 436.132812 488.496094 439.566406 487.3125 442.996094 L 464.945312 445.246094 C 458.316406 446.074219 453.34375 451.636719 453.34375 458.382812 L 453.34375 492.707031 C 453.34375 499.21875 458.554688 505.136719 465.179688 505.726562 L 487.433594 508.09375 C 488.496094 511.171875 490.035156 514.960938 491.695312 518.273438 L 477.492188 535.789062 C 473.347656 541 473.820312 548.691406 478.4375 553.308594 L 502.582031 577.335938 C 507.199219 582.304688 515.011719 582.777344 520.335938 578.398438 L 537.617188 564.316406 C 540.8125 565.855469 544.246094 567.273438 547.675781 568.574219 L 550.042969 590.828125 C 550.753906 597.574219 556.316406 602.664062 563.183594 602.664062 L 597.386719 602.664062 C 604.015625 602.664062 609.695312 597.691406 610.527344 590.828125 L 612.773438 568.574219 C 616.324219 567.273438 619.640625 565.855469 622.835938 564.316406 L 624.964844 566.089844 L 624.964844 618.996094 L 281.726562 618.996094 C 277.9375 618.996094 274.980469 622.074219 275.097656 625.742188 C 275.097656 629.414062 278.054688 632.371094 281.726562 632.371094 C 289.0625 632.371094 295.691406 635.332031 300.664062 639.945312 C 319.007812 656.042969 306.460938 688.238281 281.726562 687.761719 Z M 665.917969 632.253906 C 702.609375 633.4375 702.609375 686.578125 665.917969 687.761719 C 665.917969 687.761719 312.023438 687.761719 312.023438 687.761719 C 326.347656 672.851562 326.226562 646.8125 312.023438 632.253906 C 328.242188 632.253906 661.539062 632.253906 665.917969 632.253906 Z M 655.738281 523.480469 C 655.738281 523.480469 672.664062 543.839844 672.664062 543.839844 L 648.753906 567.984375 L 627.804688 551.175781 C 625.675781 549.519531 622.714844 549.164062 620.46875 550.46875 C 615.734375 553.070312 610.40625 555.320312 604.488281 557.214844 C 602.003906 558.042969 600.109375 560.289062 599.875 562.894531 L 597.386719 589.171875 L 563.417969 589.40625 L 560.695312 562.894531 C 560.460938 560.289062 558.566406 558.042969 556.082031 557.214844 C 550.398438 555.4375 544.953125 553.1875 540.101562 550.46875 C 537.734375 549.285156 534.777344 549.519531 532.765625 551.175781 L 512.40625 567.984375 C 509.09375 564.671875 491.101562 546.796875 488.144531 544.074219 L 505.066406 523.480469 C 508.617188 519.457031 504.949219 514.722656 503.292969 510.933594 C 499.742188 505.136719 500.925781 496.613281 493.585938 495.3125 C 493.585938 495.3125 467.191406 492.828125 467.191406 492.828125 L 466.957031 458.621094 L 493.585938 455.898438 C 496.308594 455.660156 498.558594 453.769531 499.269531 451.164062 C 500.925781 445.484375 503.175781 440.15625 505.777344 435.304688 C 507.082031 432.9375 506.84375 429.976562 505.066406 427.847656 L 488.144531 407.371094 L 512.167969 383.226562 L 532.882812 400.03125 C 535.011719 401.691406 537.851562 402.046875 540.21875 400.742188 C 545.546875 397.902344 550.871094 395.773438 556.082031 394.234375 C 558.683594 393.523438 560.578125 391.273438 560.933594 388.550781 L 563.539062 362.160156 L 597.507812 361.921875 L 600.226562 388.550781 C 600.464844 391.273438 602.359375 393.523438 605.082031 394.351562 C 610.40625 395.890625 615.734375 398.019531 620.824219 400.863281 C 626.265625 404.292969 632.183594 396.363281 636.210938 393.761719 C 636.328125 393.523438 648.636719 383.582031 648.753906 383.464844 L 672.902344 407.371094 L 655.738281 428.085938 C 654.082031 430.214844 653.726562 433.054688 655.027344 435.539062 C 657.75 440.511719 660 445.839844 661.65625 451.402344 C 662.484375 454.003906 664.734375 455.78125 667.335938 456.136719 L 693.730469 458.855469 L 693.851562 492.707031 L 667.335938 495.429688 C 660.117188 496.613281 660.828125 505.371094 657.632812 510.699219 C 655.855469 514.605469 652.1875 519.457031 655.738281 523.480469 Z M 221.480469 381.6875 L 394.757812 381.6875 C 398.425781 381.6875 401.386719 378.730469 401.386719 375.058594 L 401.386719 325.585938 C 401.386719 321.917969 398.425781 318.957031 394.757812 318.957031 L 221.480469 318.957031 C 217.8125 318.957031 214.851562 321.917969 214.851562 325.585938 L 214.851562 375.058594 C 214.851562 378.609375 217.8125 381.6875 221.480469 381.6875 Z M 228.226562 332.214844 L 388.128906 332.214844 L 388.128906 368.3125 L 228.226562 368.3125 Z M 221.480469 424.652344 C 221.480469 424.652344 317.707031 424.652344 317.707031 424.652344 C 326.464844 424.652344 326.464844 438.027344 317.707031 438.027344 C 317.707031 438.027344 221.480469 438.027344 221.480469 438.027344 C 212.722656 437.90625 212.839844 424.652344 221.480469 424.652344 Z M 403.632812 485.25 C 403.632812 485.25 221.597656 485.25 221.597656 485.25 C 212.839844 485.25 212.957031 471.875 221.597656 471.875 L 403.632812 471.875 C 412.394531 471.996094 412.273438 485.25 403.632812 485.25 Z M 403.632812 519.21875 C 412.394531 519.21875 412.273438 532.59375 403.632812 532.59375 C 403.632812 532.59375 221.597656 532.59375 221.597656 532.59375 C 212.839844 532.59375 212.957031 519.21875 221.597656 519.21875 Z M 403.632812 579.9375 C 403.632812 579.9375 221.597656 579.9375 221.597656 579.9375 C 212.839844 579.9375 212.957031 566.5625 221.597656 566.5625 L 403.632812 566.5625 C 412.394531 566.5625 412.273438 579.820312 403.632812 579.9375 Z M 334.867188 282.148438 L 367.296875 282.148438 C 370.96875 282.148438 373.925781 279.1875 373.925781 275.519531 L 373.925781 223.085938 C 373.925781 219.417969 370.96875 216.457031 367.296875 216.457031 L 334.867188 216.457031 C 331.199219 216.457031 328.242188 219.417969 328.242188 223.085938 L 328.242188 275.519531 C 328.121094 279.1875 331.199219 282.148438 334.867188 282.148438 Z M 341.496094 229.714844 L 360.550781 229.714844 L 360.550781 268.773438 L 341.496094 268.773438 Z M 497.613281 275.519531 L 497.613281 223.085938 C 497.613281 219.417969 500.570312 216.457031 504.238281 216.457031 C 504.238281 216.457031 536.667969 216.457031 536.667969 216.457031 C 545.429688 216.457031 545.429688 229.832031 536.667969 229.832031 L 510.867188 229.832031 L 510.867188 268.890625 C 510.867188 268.890625 536.667969 268.890625 536.667969 268.890625 C 545.429688 268.890625 545.429688 282.148438 536.667969 282.265625 L 504.238281 282.265625 C 500.570312 282.148438 497.613281 279.1875 497.613281 275.519531 Z M 384.699219 275.519531 C 384.699219 275.519531 384.699219 263.566406 384.699219 263.566406 C 384.699219 254.808594 398.070312 254.808594 398.070312 263.566406 L 398.070312 268.890625 L 417.128906 268.890625 L 417.128906 223.085938 C 417.128906 214.328125 430.503906 214.328125 430.503906 223.085938 C 430.503906 223.085938 430.503906 275.519531 430.503906 275.519531 C 430.503906 279.1875 427.542969 282.148438 423.875 282.148438 L 391.445312 282.148438 C 387.65625 282.148438 384.699219 279.1875 384.699219 275.519531 Z M 441.15625 275.519531 L 441.15625 223.085938 C 441.15625 219.417969 444.113281 216.457031 447.78125 216.457031 C 447.78125 216.457031 480.210938 216.457031 480.210938 216.457031 C 488.972656 216.457031 488.972656 229.832031 480.210938 229.832031 L 454.410156 229.832031 L 454.410156 242.734375 L 480.210938 242.734375 C 483.882812 242.734375 486.839844 245.695312 486.839844 249.363281 C 486.839844 253.03125 483.882812 255.992188 480.210938 255.992188 L 454.410156 255.992188 L 454.410156 268.890625 C 454.410156 268.890625 480.210938 268.890625 480.210938 268.890625 C 488.972656 268.890625 488.972656 282.148438 480.210938 282.265625 L 447.902344 282.265625 C 444.230469 282.148438 441.15625 279.1875 441.15625 275.519531 Z M 558.921875 216.339844 C 558.921875 216.339844 591.351562 216.339844 591.351562 216.339844 C 600.109375 216.339844 600.109375 229.714844 591.351562 229.714844 L 581.765625 229.714844 L 581.765625 275.519531 C 581.765625 279.1875 578.804688 282.148438 575.136719 282.148438 C 571.46875 282.148438 568.507812 279.1875 568.507812 275.519531 L 568.507812 229.714844 L 558.921875 229.714844 C 550.164062 229.714844 550.164062 216.457031 558.921875 216.339844 Z M 225.386719 275.519531 L 225.386719 255.992188 L 251.1875 255.992188 C 254.859375 255.992188 257.816406 253.03125 257.816406 249.363281 L 257.816406 223.085938 C 257.816406 219.417969 254.859375 216.457031 251.1875 216.457031 L 218.757812 216.457031 C 215.089844 216.457031 212.128906 219.417969 212.128906 223.085938 L 212.128906 275.519531 C 212.128906 284.160156 225.386719 284.277344 225.386719 275.519531 Z M 225.386719 229.714844 L 244.441406 229.714844 L 244.441406 242.617188 L 225.386719 242.617188 Z M 278.292969 282.148438 C 281.960938 282.148438 284.921875 279.1875 284.921875 275.519531 L 284.921875 262.261719 L 306.34375 280.609375 C 307.644531 281.675781 309.183594 282.265625 310.722656 282.265625 C 316.640625 282.503906 319.835938 274.335938 315.101562 270.546875 C 315.101562 270.546875 298.175781 256.109375 298.175781 256.109375 L 310.722656 256.109375 C 314.390625 256.109375 317.351562 253.148438 317.351562 249.480469 L 317.351562 223.207031 C 317.351562 219.535156 314.390625 216.578125 310.722656 216.578125 L 278.292969 216.578125 C 274.625 216.578125 271.664062 219.535156 271.664062 223.207031 L 271.664062 275.636719 C 271.664062 279.1875 274.625 282.148438 278.292969 282.148438 Z M 285.039062 229.714844 L 304.09375 229.714844 L 304.09375 242.617188 L 285.039062 242.617188 Z M 285.039062 229.714844 " fill-opacity="1" fill-rule="nonzero"/></g></svg>