<svg xmlns="http://www.w3.org/2000/svg" xmlns:xlink="http://www.w3.org/1999/xlink" width="1080" zoomAndPan="magnify" viewBox="0 0 810 809.999993" height="1080" preserveAspectRatio="xMidYMid meet" version="1.0"><defs><clipPath id="41b5efd0a2"><path d="M 243 252.101562 L 490.027344 252.101562 L 490.027344 557 L 243 557 Z M 243 252.101562 " clip-rule="nonzero"/></clipPath><clipPath id="42a68e8320"><path d="M 325.386719 259.234375 C 338.011719 254.925781 352.449219 252.101562 366.578125 252.101562 C 380.710938 252.101562 394.308594 254.523438 406.839844 258.828125 C 407.105469 258.964844 407.371094 258.964844 407.640625 259.097656 C 454.699219 276.324219 489.359375 321.816406 490.027344 374.976562 L 490.027344 556.132812 L 243 556.132812 L 243 375.113281 C 243.667969 321.546875 277.792969 276.058594 325.386719 259.234375 Z M 325.386719 259.234375 " clip-rule="nonzero"/></clipPath><clipPath id="ab56274492"><path d="M 307.242188 253.867188 L 567 253.867188 L 567 556.242188 L 307.242188 556.242188 Z M 307.242188 253.867188 " clip-rule="nonzero"/></clipPath><clipPath id="6c9291f850"><path d="M 437.121094 253.867188 L 567 329.433594 L 567 480.566406 L 437.121094 556.132812 L 307.242188 480.566406 L 307.242188 329.433594 Z M 437.121094 253.867188 " clip-rule="nonzero"/></clipPath><clipPath id="05a3d7ba90"><path d="M 250 253.867188 L 561 253.867188 L 561 556.117188 L 250 556.117188 Z M 250 253.867188 " clip-rule="nonzero"/></clipPath></defs><g clip-path="url(#41b5efd0a2)"><g clip-path="url(#42a68e8320)"><path fill="#24acad" d="M 243 252.101562 L 490.027344 252.101562 L 490.027344 556.058594 L 243 556.058594 Z M 243 252.101562 " fill-opacity="1" fill-rule="nonzero"/></g></g><g clip-path="url(#ab56274492)"><g clip-path="url(#6c9291f850)"><path fill="#166969" d="M 307.242188 253.867188 L 567 253.867188 L 567 556.242188 L 307.242188 556.242188 Z M 307.242188 253.867188 " fill-opacity="1" fill-rule="nonzero"/></g></g><g clip-path="url(#05a3d7ba90)"><path fill="#ffffff" d="M 494.984375 411.226562 C 478.878906 411.226562 465.8125 424.355469 465.8125 440.464844 C 466.601562 476.386719 517.839844 480.152344 523.855469 444.839844 C 526.773438 427.394531 512.671875 411.105469 494.984375 411.226562 Z M 517.230469 442.894531 C 513.523438 470.609375 473.285156 468.542969 472.617188 440.464844 C 474.078125 409.222656 519.238281 411.777344 517.230469 442.894531 Z M 553.941406 455.902344 C 557.40625 455.597656 560.140625 452.679688 560.140625 449.214844 L 560.140625 431.589844 C 560.140625 428.125 557.527344 425.269531 554.0625 424.84375 L 542.636719 423.6875 C 542.03125 421.925781 541.300781 420.164062 540.449219 418.523438 L 547.683594 409.707031 C 549.929688 407.035156 549.75 403.082031 547.257812 400.589844 L 534.796875 388.191406 C 531.941406 385.273438 527.503906 385.761719 524.769531 388.558594 L 524.769531 289.847656 C 524.769531 270.035156 508.601562 253.867188 488.785156 253.867188 C 488.726562 253.867188 468.425781 253.867188 468.363281 253.867188 C 468.363281 253.867188 271.070312 253.867188 271.070312 253.867188 C 243.171875 254.839844 243.050781 295.078125 271.070312 296.109375 L 285.171875 296.109375 L 285.171875 520.148438 C 285.171875 539.960938 301.339844 556.128906 321.152344 556.128906 L 341.636719 556.128906 C 341.636719 556.128906 538.992188 556.128906 538.992188 556.128906 C 566.949219 555.15625 566.949219 514.859375 538.992188 513.886719 C 538.992188 513.886719 524.769531 513.886719 524.769531 513.886719 L 524.769531 492.308594 C 527.503906 495.105469 532 495.59375 534.796875 492.675781 C 534.796875 492.675781 547.257812 480.214844 547.257812 480.214844 C 549.6875 477.722656 549.871094 473.773438 547.683594 471.15625 L 540.390625 462.285156 C 541.238281 460.582031 541.96875 458.699219 542.578125 457.058594 Z M 271.128906 289.242188 C 252.289062 288.632812 252.289062 261.34375 271.128906 260.734375 L 452.863281 260.734375 C 445.511719 268.453125 445.511719 281.644531 452.863281 289.242188 Z M 341.695312 549.320312 C 341.695312 549.320312 321.214844 549.320312 321.214844 549.320312 C 305.167969 549.320312 292.101562 536.253906 292.101562 520.207031 L 292.101562 296.109375 L 468.484375 296.109375 C 472.984375 296.109375 472.984375 289.242188 468.484375 289.242188 C 460.582031 289.242188 454.203125 282.738281 454.203125 274.957031 C 454.203125 268.089844 459.125 262.316406 465.566406 260.980469 C 466.722656 260.492188 487.023438 260.734375 488.847656 260.675781 C 504.894531 260.675781 517.960938 273.742188 517.960938 289.789062 L 517.960938 393.964844 L 516.867188 394.878906 C 515.164062 394.027344 513.402344 393.359375 511.699219 392.75 L 510.546875 381.261719 C 510.121094 377.859375 507.261719 375.308594 503.796875 375.308594 L 486.234375 375.308594 C 482.828125 375.308594 479.851562 377.859375 479.488281 381.324219 L 478.269531 392.75 C 476.570312 393.359375 474.804688 394.089844 473.105469 394.878906 L 464.230469 387.644531 C 461.496094 385.398438 457.542969 385.640625 455.175781 388.132812 L 442.652344 400.53125 C 440.28125 402.902344 440.039062 406.914062 442.167969 409.585938 L 449.398438 418.460938 C 448.609375 420.101562 447.878906 421.863281 447.273438 423.628906 L 435.785156 424.78125 C 432.382812 425.207031 429.828125 428.066406 429.828125 431.527344 L 429.828125 449.15625 C 429.828125 452.5 432.503906 455.539062 435.90625 455.839844 L 447.332031 457.058594 C 447.878906 458.636719 448.671875 460.582031 449.523438 462.285156 L 442.226562 471.28125 C 440.101562 473.953125 440.34375 477.90625 442.714844 480.273438 L 455.113281 492.613281 C 457.484375 495.167969 461.496094 495.410156 464.230469 493.160156 L 473.105469 485.925781 C 474.746094 486.71875 476.507812 487.445312 478.269531 488.117188 L 479.488281 499.542969 C 479.851562 503.007812 482.707031 505.621094 486.234375 505.621094 L 503.796875 505.621094 C 507.203125 505.621094 510.121094 503.066406 510.546875 499.542969 L 511.699219 488.117188 C 513.523438 487.445312 515.226562 486.71875 516.867188 485.925781 L 517.960938 486.839844 L 517.960938 514.007812 L 341.695312 514.007812 C 339.753906 514.007812 338.234375 515.589844 338.292969 517.472656 C 338.292969 519.355469 339.8125 520.875 341.695312 520.875 C 345.464844 520.875 348.867188 522.394531 351.421875 524.765625 C 360.84375 533.03125 354.398438 549.566406 341.695312 549.320312 Z M 538.992188 520.816406 C 557.832031 521.421875 557.832031 548.714844 538.992188 549.320312 C 538.992188 549.320312 357.257812 549.320312 357.257812 549.320312 C 364.609375 541.664062 364.550781 528.292969 357.257812 520.816406 C 365.582031 520.816406 536.742188 520.816406 538.992188 520.816406 Z M 533.761719 464.957031 C 533.761719 464.957031 542.457031 475.414062 542.457031 475.414062 L 530.175781 487.8125 L 519.417969 479.179688 C 518.324219 478.332031 516.804688 478.148438 515.652344 478.816406 C 513.21875 480.152344 510.484375 481.308594 507.445312 482.28125 C 506.167969 482.707031 505.195312 483.859375 505.074219 485.199219 L 503.796875 498.691406 L 486.355469 498.8125 L 484.957031 485.199219 C 484.835938 483.859375 483.863281 482.707031 482.585938 482.28125 C 479.667969 481.371094 476.871094 480.214844 474.382812 478.816406 C 473.164062 478.207031 471.644531 478.332031 470.613281 479.179688 L 460.160156 487.8125 C 458.457031 486.109375 449.21875 476.933594 447.699219 475.535156 L 456.390625 464.957031 C 458.214844 462.890625 456.328125 460.460938 455.476562 458.515625 C 453.65625 455.539062 454.261719 451.160156 450.496094 450.492188 C 450.496094 450.492188 436.941406 449.214844 436.941406 449.214844 L 436.820312 431.652344 L 450.496094 430.253906 C 451.890625 430.132812 453.046875 429.160156 453.410156 427.820312 C 454.261719 424.902344 455.417969 422.167969 456.753906 419.675781 C 457.421875 418.460938 457.300781 416.941406 456.390625 415.847656 L 447.699219 405.332031 L 460.035156 392.933594 L 470.671875 401.5625 C 471.765625 402.414062 473.226562 402.597656 474.441406 401.929688 C 477.175781 400.46875 479.910156 399.375 482.585938 398.585938 C 483.921875 398.222656 484.894531 397.066406 485.078125 395.667969 L 486.414062 382.113281 L 503.859375 381.992188 L 505.257812 395.667969 C 505.378906 397.066406 506.351562 398.222656 507.75 398.648438 C 510.484375 399.4375 513.21875 400.53125 515.832031 401.988281 C 518.628906 403.753906 521.667969 399.679688 523.734375 398.34375 C 523.796875 398.222656 530.117188 393.117188 530.175781 393.054688 L 542.578125 405.332031 L 533.761719 415.96875 C 532.914062 417.0625 532.730469 418.523438 533.398438 419.796875 C 534.796875 422.351562 535.953125 425.085938 536.800781 427.941406 C 537.226562 429.28125 538.382812 430.191406 539.71875 430.375 L 553.273438 431.773438 L 553.335938 449.15625 L 539.71875 450.554688 C 536.011719 451.160156 536.378906 455.660156 534.734375 458.394531 C 533.824219 460.398438 531.941406 462.890625 533.761719 464.957031 Z M 310.757812 392.144531 L 399.742188 392.144531 C 401.625 392.144531 403.144531 390.625 403.144531 388.738281 L 403.144531 363.332031 C 403.144531 361.449219 401.625 359.929688 399.742188 359.929688 L 310.757812 359.929688 C 308.875 359.929688 307.355469 361.449219 307.355469 363.332031 L 307.355469 388.738281 C 307.355469 390.5625 308.875 392.144531 310.757812 392.144531 Z M 314.222656 366.738281 L 396.339844 366.738281 L 396.339844 385.273438 L 314.222656 385.273438 Z M 310.757812 414.207031 C 310.757812 414.207031 360.175781 414.207031 360.175781 414.207031 C 364.671875 414.207031 364.671875 421.074219 360.175781 421.074219 C 360.175781 421.074219 310.757812 421.074219 310.757812 421.074219 C 306.261719 421.015625 306.324219 414.207031 310.757812 414.207031 Z M 404.300781 445.328125 C 404.300781 445.328125 310.820312 445.328125 310.820312 445.328125 C 306.324219 445.328125 306.382812 438.457031 310.820312 438.457031 L 404.300781 438.457031 C 408.796875 438.519531 408.738281 445.328125 404.300781 445.328125 Z M 404.300781 462.769531 C 408.796875 462.769531 408.738281 469.636719 404.300781 469.636719 C 404.300781 469.636719 310.820312 469.636719 310.820312 469.636719 C 306.324219 469.636719 306.382812 462.769531 310.820312 462.769531 Z M 404.300781 493.949219 C 404.300781 493.949219 310.820312 493.949219 310.820312 493.949219 C 306.324219 493.949219 306.382812 487.082031 310.820312 487.082031 L 404.300781 487.082031 C 408.796875 487.082031 408.738281 493.890625 404.300781 493.949219 Z M 368.988281 341.027344 L 385.640625 341.027344 C 387.527344 341.027344 389.046875 339.507812 389.046875 337.625 L 389.046875 310.699219 C 389.046875 308.8125 387.527344 307.292969 385.640625 307.292969 L 368.988281 307.292969 C 367.101562 307.292969 365.582031 308.8125 365.582031 310.699219 L 365.582031 337.625 C 365.523438 339.507812 367.101562 341.027344 368.988281 341.027344 Z M 372.390625 314.101562 L 382.175781 314.101562 L 382.175781 334.160156 L 372.390625 334.160156 Z M 452.5625 337.625 L 452.5625 310.699219 C 452.5625 308.8125 454.082031 307.292969 455.964844 307.292969 C 455.964844 307.292969 472.617188 307.292969 472.617188 307.292969 C 477.117188 307.292969 477.117188 314.160156 472.617188 314.160156 L 459.367188 314.160156 L 459.367188 334.21875 C 459.367188 334.21875 472.617188 334.21875 472.617188 334.21875 C 477.117188 334.21875 477.117188 341.027344 472.617188 341.085938 L 455.964844 341.085938 C 454.082031 341.027344 452.5625 339.507812 452.5625 337.625 Z M 394.574219 337.625 C 394.574219 337.625 394.574219 331.484375 394.574219 331.484375 C 394.574219 326.988281 401.445312 326.988281 401.445312 331.484375 L 401.445312 334.21875 L 411.230469 334.21875 L 411.230469 310.699219 C 411.230469 306.199219 418.097656 306.199219 418.097656 310.699219 C 418.097656 310.699219 418.097656 337.625 418.097656 337.625 C 418.097656 339.507812 416.578125 341.027344 414.695312 341.027344 L 398.039062 341.027344 C 396.09375 341.027344 394.574219 339.507812 394.574219 337.625 Z M 423.570312 337.625 L 423.570312 310.699219 C 423.570312 308.8125 425.089844 307.292969 426.972656 307.292969 C 426.972656 307.292969 443.625 307.292969 443.625 307.292969 C 448.125 307.292969 448.125 314.160156 443.625 314.160156 L 430.375 314.160156 L 430.375 320.785156 L 443.625 320.785156 C 445.511719 320.785156 447.03125 322.304688 447.03125 324.191406 C 447.03125 326.074219 445.511719 327.59375 443.625 327.59375 L 430.375 327.59375 L 430.375 334.21875 C 430.375 334.21875 443.625 334.21875 443.625 334.21875 C 448.125 334.21875 448.125 341.027344 443.625 341.085938 L 427.03125 341.085938 C 425.148438 341.027344 423.570312 339.507812 423.570312 337.625 Z M 484.046875 307.234375 C 484.046875 307.234375 500.699219 307.234375 500.699219 307.234375 C 505.195312 307.234375 505.195312 314.101562 500.699219 314.101562 L 495.777344 314.101562 L 495.777344 337.625 C 495.777344 339.507812 494.257812 341.027344 492.371094 341.027344 C 490.488281 341.027344 488.96875 339.507812 488.96875 337.625 L 488.96875 314.101562 L 484.046875 314.101562 C 479.546875 314.101562 479.546875 307.292969 484.046875 307.234375 Z M 312.765625 337.625 L 312.765625 327.59375 L 326.015625 327.59375 C 327.898438 327.59375 329.417969 326.074219 329.417969 324.191406 L 329.417969 310.699219 C 329.417969 308.8125 327.898438 307.292969 326.015625 307.292969 L 309.363281 307.292969 C 307.476562 307.292969 305.957031 308.8125 305.957031 310.699219 L 305.957031 337.625 C 305.957031 342.058594 312.765625 342.121094 312.765625 337.625 Z M 312.765625 314.101562 L 322.550781 314.101562 L 322.550781 320.726562 L 312.765625 320.726562 Z M 339.933594 341.027344 C 341.820312 341.027344 343.339844 339.507812 343.339844 337.625 L 343.339844 330.816406 L 354.339844 340.238281 C 355.007812 340.785156 355.796875 341.085938 356.589844 341.085938 C 359.628906 341.210938 361.269531 337.015625 358.835938 335.070312 C 358.835938 335.070312 350.144531 327.65625 350.144531 327.65625 L 356.589844 327.65625 C 358.472656 327.65625 359.992188 326.136719 359.992188 324.25 L 359.992188 310.757812 C 359.992188 308.875 358.472656 307.355469 356.589844 307.355469 L 339.933594 307.355469 C 338.050781 307.355469 336.53125 308.875 336.53125 310.757812 L 336.53125 337.683594 C 336.53125 339.507812 338.050781 341.027344 339.933594 341.027344 Z M 343.398438 314.101562 L 353.183594 314.101562 L 353.183594 320.726562 L 343.398438 320.726562 Z M 343.398438 314.101562 " fill-opacity="1" fill-rule="nonzero"/></g></svg>