<svg xmlns="http://www.w3.org/2000/svg" xmlns:xlink="http://www.w3.org/1999/xlink" width="1080" zoomAndPan="magnify" viewBox="0 0 810 809.999993" height="1080" preserveAspectRatio="xMidYMid meet" version="1.0"><defs><clipPath id="ba2cf736f0"><path d="M 66.496094 108.808594 L 744 108.808594 L 744 701.191406 L 66.496094 701.191406 Z M 66.496094 108.808594 " clip-rule="nonzero"/></clipPath><clipPath id="69beff5ddf"><path d="M 66.496094 151.121094 L 405 108.808594 L 743.503906 151.121094 L 743.503906 658.875 L 405 701.191406 L 66.496094 658.875 Z M 66.496094 151.121094 " clip-rule="nonzero"/></clipPath><clipPath id="46ffe1c197"><path d="M 182.210938 616 L 585 616 L 585 668.308594 L 182.210938 668.308594 Z M 182.210938 616 " clip-rule="nonzero"/></clipPath><clipPath id="cf918a9110"><path d="M 503 154 L 668.960938 154 L 668.960938 321 L 503 321 Z M 503 154 " clip-rule="nonzero"/></clipPath></defs><g clip-path="url(#ba2cf736f0)"><g clip-path="url(#69beff5ddf)"><path fill="#1f9696" d="M 66.496094 108.808594 L 744.496094 108.808594 L 744.496094 701.191406 L 66.496094 701.191406 Z M 66.496094 108.808594 " fill-opacity="1" fill-rule="nonzero"/></g></g><path fill="#ffffff" d="M 383.488281 423.179688 C 381.308594 423.179688 379.257812 422.203125 377.878906 420.515625 L 338.773438 372.210938 C 337.734375 370.921875 337.171875 369.320312 337.171875 367.679688 L 337.171875 331.800781 C 337.171875 329.113281 338.660156 326.660156 341.039062 325.40625 C 343.417969 324.167969 346.292969 324.34375 348.496094 325.882812 C 358.832031 333.078125 370.933594 336.894531 383.488281 336.894531 C 396.039062 336.894531 408.140625 333.089844 418.476562 325.882812 C 420.679688 324.34375 423.558594 324.167969 425.933594 325.40625 C 428.3125 326.644531 429.800781 329.113281 429.800781 331.800781 L 429.800781 367.679688 C 429.800781 369.332031 429.238281 370.933594 428.199219 372.210938 L 389.09375 420.515625 C 387.730469 422.191406 385.664062 423.179688 383.488281 423.179688 Z M 351.589844 365.113281 L 383.488281 404.507812 L 415.386719 365.113281 L 415.386719 344.242188 C 405.4375 348.882812 394.597656 351.300781 383.488281 351.300781 C 372.375 351.300781 361.535156 348.882812 351.589844 344.242188 Z M 351.589844 365.113281 " fill-opacity="1" fill-rule="nonzero"/><path fill="#ffffff" d="M 383.488281 351.300781 C 341.613281 351.300781 307.5625 317.234375 307.5625 275.375 L 307.5625 270.53125 C 307.5625 266.554688 310.792969 263.324219 314.773438 263.324219 C 318.75 263.324219 321.980469 266.554688 321.980469 270.53125 L 321.980469 275.375 C 321.980469 309.289062 349.574219 336.894531 383.5 336.894531 C 417.414062 336.894531 445.019531 309.300781 445.019531 275.375 L 445.019531 263.710938 C 445.019531 259.734375 448.246094 256.503906 452.226562 256.503906 C 456.207031 256.503906 459.433594 259.734375 459.433594 263.710938 L 459.433594 275.375 C 459.421875 317.234375 425.359375 351.300781 383.488281 351.300781 Z M 383.488281 351.300781 " fill-opacity="1" fill-rule="nonzero"/><path fill="#ffffff" d="M 314.757812 277.742188 C 312.417969 277.742188 310.292969 276.601562 308.976562 274.824219 C 305.074219 271.308594 294.0625 260.933594 292.671875 221.351562 C 292.359375 221.015625 292.058594 220.640625 291.78125 220.25 C 288.453125 215.609375 285 205.671875 293.484375 173.171875 C 293.535156 172.972656 293.597656 172.773438 293.671875 172.585938 C 293.960938 171.785156 300.582031 153.839844 324.28125 147.21875 C 331.816406 131.8125 351.761719 108.925781 383.773438 114.15625 C 386.414062 114.59375 388.605469 116.445312 389.457031 118.984375 C 389.519531 119.175781 389.617188 119.5 389.742188 119.9375 C 403.132812 117.109375 428.351562 114.257812 442.101562 128.621094 C 443.292969 129.859375 443.992188 131.488281 444.09375 133.203125 C 444.15625 134.265625 444.105469 137.832031 441.238281 141.363281 C 444.992188 143.652344 449.035156 146.59375 453.027344 150.347656 C 465.605469 162.171875 480.257812 184.6875 478.65625 224.804688 C 478.632812 225.507812 478.496094 226.195312 478.269531 226.859375 C 477.96875 227.734375 470.699219 248.644531 458.257812 267.65625 C 456.445312 270.433594 452.964844 271.609375 449.835938 270.507812 C 446.707031 269.40625 444.730469 266.316406 445.042969 263.011719 C 446.921875 243.402344 446.195312 208.398438 436.257812 197.976562 C 434.746094 196.386719 433.167969 195.558594 431.265625 195.371094 C 403.257812 209.414062 363.777344 209.414062 335.757812 195.386719 C 334.117188 195.585938 332.730469 196.347656 331.367188 197.773438 C 320.839844 208.726562 320.003906 247.707031 321.941406 269.78125 C 321.953125 269.90625 321.96875 270.042969 321.96875 270.167969 C 322.15625 274.085938 319.175781 277.441406 315.257812 277.703125 C 315.097656 277.726562 314.921875 277.742188 314.757812 277.742188 Z M 430.378906 180.917969 C 436.609375 180.917969 442.226562 183.371094 446.683594 188.039062 C 456.03125 197.839844 459.210938 216.933594 460.035156 233.640625 C 462.199219 228.671875 463.652344 224.84375 464.277344 223.140625 C 466.355469 159.03125 422.855469 148.445312 421.003906 148.03125 C 417.4375 147.21875 415.011719 143.863281 415.410156 140.222656 C 415.796875 136.582031 418.851562 133.816406 422.507812 133.789062 C 422.769531 133.789062 423.019531 133.789062 423.257812 133.777344 C 410.769531 130 392.382812 133.753906 385.515625 135.878906 C 383.097656 136.632812 380.472656 136.054688 378.582031 134.378906 C 376.742188 132.738281 375.867188 130.273438 376.253906 127.859375 C 365.117188 127.371094 355.292969 131.449219 346.945312 140.035156 C 339.601562 147.59375 336.144531 155.964844 336.121094 156.054688 C 335.230469 158.292969 333.28125 159.933594 330.925781 160.433594 C 313.59375 164.136719 308.113281 175.414062 307.3125 177.265625 C 301.054688 201.40625 302.570312 209.351562 303.257812 211.339844 C 305.4375 212.554688 306.914062 214.855469 306.960938 217.496094 C 307.039062 221.152344 307.199219 225.042969 307.511719 228.972656 C 308.964844 212.917969 312.621094 196.460938 320.941406 187.800781 C 325.546875 183.007812 331.351562 180.65625 337.761719 180.957031 C 338.824219 181.007812 339.851562 181.292969 340.789062 181.78125 C 365.117188 194.683594 401.820312 194.683594 426.148438 181.78125 C 427.085938 181.28125 428.113281 181.007812 429.175781 180.957031 C 429.589844 180.929688 429.988281 180.917969 430.378906 180.917969 Z M 300.316406 210.441406 Z M 300.304688 210.441406 Z M 300.292969 210.441406 Z M 300.292969 210.441406 " fill-opacity="1" fill-rule="nonzero"/><path fill="#ffffff" d="M 527.835938 448.371094 L 239.148438 448.371094 C 237.035156 448.371094 235.03125 447.445312 233.65625 445.832031 C 232.289062 444.214844 231.691406 442.089844 232.027344 440 C 235.621094 418.035156 246.984375 397.890625 264.015625 383.246094 C 281.246094 368.445312 303.183594 360.285156 325.796875 360.285156 L 344.378906 360.285156 C 347.09375 360.285156 349.460938 361.785156 350.6875 364 L 383.488281 404.507812 L 416.285156 364 C 417.511719 361.785156 419.878906 360.285156 422.59375 360.285156 L 441.175781 360.285156 C 463.777344 360.285156 485.726562 368.445312 502.960938 383.246094 C 519.992188 397.890625 531.355469 418.050781 534.945312 440 C 535.285156 442.089844 534.695312 444.214844 533.332031 445.832031 C 531.953125 447.445312 529.953125 448.371094 527.835938 448.371094 Z M 248.109375 433.96875 L 518.878906 433.96875 C 509.339844 399.652344 477.34375 374.714844 441.175781 374.714844 L 426.171875 374.714844 L 389.082031 420.515625 C 387.714844 422.203125 385.652344 423.179688 383.472656 423.179688 C 381.296875 423.179688 379.246094 422.203125 377.867188 420.515625 L 340.777344 374.714844 L 325.773438 374.714844 C 289.644531 374.699219 257.644531 399.640625 248.109375 433.96875 Z M 248.109375 433.96875 " fill-opacity="1" fill-rule="nonzero"/><path fill="#ffffff" d="M 548.347656 630.890625 L 218.625 630.890625 C 215.035156 630.890625 211.992188 628.25 211.492188 624.695312 L 185.511719 442.1875 C 185.210938 440.125 185.839844 438.023438 187.203125 436.445312 C 188.566406 434.867188 190.554688 433.96875 192.644531 433.96875 L 574.339844 433.96875 C 576.429688 433.96875 578.417969 434.867188 579.785156 436.445312 C 581.148438 438.023438 581.773438 440.113281 581.472656 442.1875 L 555.480469 624.695312 C 554.980469 628.25 551.941406 630.890625 548.347656 630.890625 Z M 224.882812 616.472656 L 542.089844 616.472656 L 566.03125 448.382812 L 200.957031 448.382812 Z M 224.882812 616.472656 " fill-opacity="1" fill-rule="nonzero"/><g clip-path="url(#46ffe1c197)"><path fill="#ffffff" d="M 540.039062 668.40625 L 226.949219 668.40625 C 202.28125 668.40625 182.222656 648.347656 182.222656 623.683594 C 182.222656 619.703125 185.449219 616.472656 189.429688 616.472656 L 577.570312 616.472656 C 581.546875 616.472656 584.777344 619.703125 584.777344 623.683594 C 584.765625 648.347656 564.703125 668.40625 540.039062 668.40625 Z M 197.5 630.890625 C 200.742188 644.128906 212.71875 653.992188 226.949219 653.992188 L 540.039062 653.992188 C 554.265625 653.992188 566.242188 644.128906 569.484375 630.890625 Z M 197.5 630.890625 " fill-opacity="1" fill-rule="nonzero"/></g><path fill="#ffffff" d="M 383.488281 584.3125 C 354.878906 584.3125 331.601562 561.035156 331.601562 532.429688 C 331.601562 503.820312 354.878906 480.546875 383.488281 480.546875 C 412.09375 480.546875 435.371094 503.820312 435.371094 532.429688 C 435.371094 561.035156 412.105469 584.3125 383.488281 584.3125 Z M 383.488281 494.960938 C 362.824219 494.960938 346.019531 511.769531 346.019531 532.429688 C 346.019531 553.089844 362.824219 569.894531 383.488281 569.894531 C 404.148438 569.894531 420.953125 553.089844 420.953125 532.429688 C 420.953125 511.769531 404.148438 494.960938 383.488281 494.960938 Z M 383.488281 494.960938 " fill-opacity="1" fill-rule="nonzero"/><g clip-path="url(#cf918a9110)"><path fill="#ffffff" d="M 593.5625 320.550781 L 578.832031 320.550781 C 571.949219 320.550781 566.394531 315.195312 565.878906 308.101562 L 565.203125 298.550781 C 562.726562 297.699219 560.300781 296.6875 557.933594 295.535156 L 550.699219 301.816406 C 545.320312 306.484375 537.597656 306.335938 532.730469 301.46875 L 522.320312 291.054688 C 517.449219 286.1875 517.300781 278.464844 521.96875 273.085938 L 528.25 265.851562 C 527.097656 263.488281 526.085938 261.058594 525.234375 258.582031 L 515.6875 257.90625 C 508.589844 257.40625 503.234375 251.835938 503.234375 244.953125 L 503.234375 230.222656 C 503.234375 223.339844 508.589844 217.773438 515.6875 217.273438 L 525.234375 216.597656 C 526.085938 214.117188 527.097656 211.691406 528.25 209.324219 L 521.96875 202.09375 C 517.300781 196.710938 517.449219 188.992188 522.320312 184.121094 L 532.730469 173.710938 C 537.597656 168.84375 545.320312 168.691406 550.6875 173.359375 L 557.921875 179.640625 C 560.285156 178.492188 562.714844 177.476562 565.191406 176.625 L 565.867188 167.078125 C 566.367188 159.96875 571.9375 154.625 578.820312 154.625 L 593.550781 154.625 C 600.433594 154.625 606 159.984375 606.5 167.078125 L 607.175781 176.625 C 609.65625 177.476562 612.082031 178.492188 614.449219 179.640625 L 621.679688 173.359375 C 627.0625 168.691406 634.785156 168.84375 639.640625 173.710938 L 650.050781 184.121094 C 654.917969 188.992188 655.054688 196.710938 650.402344 202.082031 L 644.121094 209.3125 C 645.269531 211.679688 646.285156 214.105469 647.136719 216.585938 L 656.683594 217.261719 C 663.777344 217.761719 669.136719 223.328125 669.136719 230.210938 L 669.136719 244.941406 C 669.136719 251.824219 663.777344 257.378906 656.683594 257.894531 L 647.136719 258.570312 C 646.285156 261.046875 645.269531 263.476562 644.121094 265.839844 L 650.402344 273.074219 C 655.070312 278.453125 654.917969 286.175781 650.050781 291.03125 L 639.640625 301.441406 C 634.769531 306.3125 627.050781 306.460938 621.667969 301.792969 L 614.4375 295.511719 C 612.070312 296.664062 609.644531 297.675781 607.164062 298.527344 L 606.488281 308.074219 C 606 315.195312 600.433594 320.550781 593.5625 320.550781 Z M 580.195312 306.136719 L 592.183594 306.136719 L 593.148438 292.558594 C 593.375 289.453125 595.550781 286.851562 598.566406 286.074219 C 603.183594 284.898438 607.617188 283.058594 611.734375 280.617188 C 614.410156 279.03125 617.789062 279.332031 620.140625 281.371094 L 630.429688 290.292969 L 638.914062 281.808594 L 629.992188 271.519531 C 627.949219 269.167969 627.652344 265.777344 629.238281 263.113281 C 631.691406 258.996094 633.519531 254.578125 634.695312 249.945312 C 635.460938 246.929688 638.074219 244.753906 641.179688 244.527344 L 654.757812 243.566406 L 654.757812 231.574219 L 641.179688 230.613281 C 638.074219 230.386719 635.472656 228.210938 634.695312 225.195312 C 633.519531 220.574219 631.679688 216.144531 629.238281 212.027344 C 627.652344 209.351562 627.949219 205.972656 629.992188 203.621094 L 638.914062 193.332031 L 630.429688 184.847656 L 620.140625 193.769531 C 617.789062 195.8125 614.398438 196.109375 611.734375 194.523438 C 607.617188 192.070312 603.199219 190.242188 598.566406 189.066406 C 595.550781 188.300781 593.375 185.6875 593.148438 182.582031 L 592.183594 169.003906 L 580.195312 169.003906 L 579.234375 182.582031 C 579.007812 185.6875 576.832031 188.289062 573.816406 189.066406 C 569.195312 190.242188 564.765625 192.082031 560.648438 194.523438 C 557.972656 196.109375 554.59375 195.8125 552.242188 193.769531 L 541.953125 184.847656 L 533.46875 193.332031 L 542.390625 203.621094 C 544.429688 205.972656 544.730469 209.363281 543.140625 212.027344 C 540.691406 216.132812 538.863281 220.5625 537.6875 225.195312 C 536.921875 228.210938 534.308594 230.386719 531.203125 230.613281 L 517.625 231.574219 L 517.625 243.566406 L 531.203125 244.527344 C 534.308594 244.753906 536.910156 246.929688 537.6875 249.933594 C 538.863281 254.566406 540.703125 258.996094 543.140625 263.097656 C 544.730469 265.777344 544.429688 269.167969 542.390625 271.507812 L 533.46875 281.796875 L 541.953125 290.28125 L 552.242188 281.355469 C 554.59375 279.316406 557.972656 279.015625 560.648438 280.605469 C 564.765625 283.058594 569.195312 284.886719 573.816406 286.0625 C 576.832031 286.824219 579.007812 289.441406 579.234375 292.546875 Z M 580.195312 306.136719 " fill-opacity="1" fill-rule="nonzero"/></g><path fill="#ffffff" d="M 586.191406 275.5 C 565.292969 275.5 548.285156 258.492188 548.285156 237.59375 C 548.285156 216.695312 565.292969 199.691406 586.191406 199.691406 C 607.089844 199.691406 624.097656 216.695312 624.097656 237.59375 C 624.097656 258.492188 607.101562 275.5 586.191406 275.5 Z M 586.191406 214.09375 C 573.238281 214.09375 562.703125 224.628906 562.703125 237.582031 C 562.703125 250.535156 573.238281 261.070312 586.191406 261.070312 C 599.144531 261.070312 609.679688 250.535156 609.679688 237.582031 C 609.679688 224.644531 599.144531 214.09375 586.191406 214.09375 Z M 586.191406 214.09375 " fill-opacity="1" fill-rule="nonzero"/></svg>