<svg xmlns="http://www.w3.org/2000/svg" xmlns:xlink="http://www.w3.org/1999/xlink" width="1080" zoomAndPan="magnify" viewBox="0 0 810 809.999993" height="1080" preserveAspectRatio="xMidYMid meet" version="1.0"><defs><clipPath id="53370907ad"><path d="M 209.046875 233.539062 L 601 233.539062 L 601 576.460938 L 209.046875 576.460938 Z M 209.046875 233.539062 " clip-rule="nonzero"/></clipPath><clipPath id="4671f83fdd"><path d="M 209.046875 258.035156 L 405 233.539062 L 600.953125 258.035156 L 600.953125 551.964844 L 405 576.460938 L 209.046875 551.964844 Z M 209.046875 258.035156 " clip-rule="nonzero"/></clipPath><clipPath id="58958aa818"><path d="M 276.027344 527 L 510 527 L 510 557.539062 L 276.027344 557.539062 Z M 276.027344 527 " clip-rule="nonzero"/></clipPath></defs><g clip-path="url(#53370907ad)"><g clip-path="url(#4671f83fdd)"><path fill="#1f9696" d="M 209.046875 233.539062 L 601.527344 233.539062 L 601.527344 576.460938 L 209.046875 576.460938 Z M 209.046875 233.539062 " fill-opacity="1" fill-rule="nonzero"/></g></g><path fill="#ffffff" d="M 392.542969 415.527344 C 391.285156 415.527344 390.097656 414.960938 389.300781 413.984375 L 366.660156 386.019531 C 366.058594 385.273438 365.734375 384.347656 365.734375 383.398438 L 365.734375 362.628906 C 365.734375 361.070312 366.597656 359.652344 367.972656 358.925781 C 369.347656 358.210938 371.015625 358.3125 372.289062 359.203125 C 378.273438 363.367188 385.277344 365.578125 392.542969 365.578125 C 399.8125 365.578125 406.816406 363.375 412.800781 359.203125 C 414.074219 358.3125 415.742188 358.210938 417.117188 358.925781 C 418.492188 359.644531 419.355469 361.070312 419.355469 362.628906 L 419.355469 383.398438 C 419.355469 384.355469 419.03125 385.28125 418.429688 386.019531 L 395.789062 413.984375 C 395 414.953125 393.804688 415.527344 392.542969 415.527344 Z M 374.078125 381.914062 L 392.542969 404.71875 L 411.011719 381.914062 L 411.011719 369.828125 C 405.25 372.515625 398.976562 373.914062 392.542969 373.914062 C 386.113281 373.914062 379.839844 372.515625 374.078125 369.828125 Z M 374.078125 381.914062 " fill-opacity="1" fill-rule="nonzero"/><path fill="#ffffff" d="M 392.542969 373.914062 C 368.304688 373.914062 348.59375 354.195312 348.59375 329.964844 L 348.59375 327.160156 C 348.59375 324.859375 350.464844 322.988281 352.765625 322.988281 C 355.070312 322.988281 356.941406 324.859375 356.941406 327.160156 L 356.941406 329.964844 C 356.941406 349.597656 372.914062 365.578125 392.550781 365.578125 C 412.183594 365.578125 428.164062 349.605469 428.164062 329.964844 L 428.164062 323.214844 C 428.164062 320.910156 430.035156 319.039062 432.335938 319.039062 C 434.640625 319.039062 436.507812 320.910156 436.507812 323.214844 L 436.507812 329.964844 C 436.503906 354.195312 416.785156 373.914062 392.542969 373.914062 Z M 392.542969 373.914062 " fill-opacity="1" fill-rule="nonzero"/><path fill="#ffffff" d="M 352.757812 331.335938 C 351.40625 331.335938 350.171875 330.675781 349.414062 329.644531 C 347.152344 327.609375 340.777344 321.605469 339.972656 298.691406 C 339.792969 298.496094 339.617188 298.277344 339.460938 298.054688 C 337.53125 295.367188 335.53125 289.613281 340.445312 270.800781 C 340.472656 270.6875 340.507812 270.570312 340.554688 270.460938 C 340.71875 269.996094 344.550781 259.609375 358.273438 255.777344 C 362.632812 246.859375 374.179688 233.609375 392.710938 236.636719 C 394.238281 236.890625 395.507812 237.964844 396 239.433594 C 396.035156 239.542969 396.09375 239.730469 396.167969 239.984375 C 403.917969 238.347656 418.515625 236.695312 426.476562 245.011719 C 427.164062 245.730469 427.570312 246.671875 427.628906 247.664062 C 427.664062 248.28125 427.636719 250.34375 425.976562 252.386719 C 428.148438 253.710938 430.488281 255.414062 432.800781 257.589844 C 440.082031 264.433594 448.5625 277.464844 447.636719 300.691406 C 447.621094 301.097656 447.542969 301.496094 447.410156 301.878906 C 447.238281 302.386719 443.03125 314.492188 435.828125 325.496094 C 434.777344 327.105469 432.765625 327.785156 430.953125 327.148438 C 429.140625 326.507812 427.996094 324.71875 428.179688 322.808594 C 429.265625 311.457031 428.84375 291.195312 423.09375 285.160156 C 422.21875 284.238281 421.304688 283.761719 420.203125 283.652344 C 403.992188 291.78125 381.136719 291.78125 364.914062 283.660156 C 363.964844 283.777344 363.164062 284.21875 362.371094 285.042969 C 356.28125 291.382812 355.796875 313.949219 356.917969 326.726562 C 356.925781 326.800781 356.933594 326.878906 356.933594 326.953125 C 357.039062 329.21875 355.316406 331.160156 353.050781 331.3125 C 352.957031 331.328125 352.855469 331.335938 352.757812 331.335938 Z M 419.6875 275.285156 C 423.296875 275.285156 426.550781 276.707031 429.128906 279.40625 C 434.539062 285.082031 436.378906 296.136719 436.855469 305.804688 C 438.109375 302.929688 438.949219 300.714844 439.3125 299.726562 C 440.515625 262.617188 415.335938 256.488281 414.261719 256.25 C 412.199219 255.777344 410.792969 253.835938 411.023438 251.726562 C 411.25 249.621094 413.015625 248.019531 415.132812 248.003906 C 415.285156 248.003906 415.429688 248.003906 415.566406 247.996094 C 408.335938 245.808594 397.695312 247.984375 393.71875 249.214844 C 392.320312 249.648438 390.800781 249.316406 389.703125 248.34375 C 388.640625 247.394531 388.132812 245.96875 388.359375 244.570312 C 381.910156 244.289062 376.222656 246.648438 371.390625 251.621094 C 367.140625 255.996094 365.140625 260.839844 365.125 260.890625 C 364.609375 262.1875 363.480469 263.136719 362.117188 263.425781 C 352.085938 265.570312 348.914062 272.097656 348.449219 273.171875 C 344.828125 287.144531 345.703125 291.746094 346.101562 292.898438 C 347.363281 293.597656 348.21875 294.933594 348.246094 296.460938 C 348.289062 298.574219 348.382812 300.828125 348.566406 303.105469 C 349.40625 293.808594 351.519531 284.285156 356.339844 279.269531 C 359.003906 276.496094 362.367188 275.132812 366.074219 275.308594 C 366.691406 275.335938 367.285156 275.503906 367.828125 275.785156 C 381.910156 283.253906 403.15625 283.253906 417.238281 275.785156 C 417.785156 275.496094 418.378906 275.335938 418.992188 275.308594 C 419.230469 275.292969 419.464844 275.285156 419.6875 275.285156 Z M 344.398438 292.375 Z M 344.394531 292.375 Z M 344.386719 292.375 Z M 344.386719 292.375 " fill-opacity="1" fill-rule="nonzero"/><path fill="#ffffff" d="M 476.105469 430.109375 L 308.992188 430.109375 C 307.765625 430.109375 306.605469 429.574219 305.808594 428.636719 C 305.019531 427.703125 304.671875 426.472656 304.867188 425.261719 C 306.949219 412.546875 313.523438 400.886719 323.382812 392.410156 C 333.359375 383.839844 346.058594 379.117188 359.148438 379.117188 L 369.90625 379.117188 C 371.480469 379.117188 372.847656 379.984375 373.558594 381.269531 L 392.542969 404.71875 L 411.53125 381.269531 C 412.242188 379.984375 413.609375 379.117188 415.183594 379.117188 L 425.941406 379.117188 C 439.023438 379.117188 451.730469 383.839844 461.703125 392.410156 C 471.5625 400.886719 478.140625 412.554688 480.222656 425.261719 C 480.417969 426.472656 480.074219 427.703125 479.285156 428.636719 C 478.488281 429.574219 477.332031 430.109375 476.105469 430.109375 Z M 314.175781 421.769531 L 470.917969 421.769531 C 465.398438 401.90625 446.875 387.46875 425.941406 387.46875 L 417.253906 387.46875 L 395.78125 413.984375 C 394.992188 414.960938 393.796875 415.527344 392.539062 415.527344 C 391.277344 415.527344 390.089844 414.960938 389.292969 413.984375 L 367.820312 387.46875 L 359.132812 387.46875 C 338.21875 387.460938 319.695312 401.898438 314.175781 421.769531 Z M 314.175781 421.769531 " fill-opacity="1" fill-rule="nonzero"/><path fill="#ffffff" d="M 487.980469 535.765625 L 297.109375 535.765625 C 295.03125 535.765625 293.269531 534.238281 292.980469 532.179688 L 277.941406 426.53125 C 277.769531 425.335938 278.128906 424.117188 278.917969 423.203125 C 279.710938 422.292969 280.859375 421.769531 282.070312 421.769531 L 503.027344 421.769531 C 504.234375 421.769531 505.386719 422.292969 506.175781 423.203125 C 506.964844 424.117188 507.328125 425.328125 507.15625 426.53125 L 492.109375 532.179688 C 491.820312 534.238281 490.058594 535.765625 487.980469 535.765625 Z M 300.730469 527.417969 L 484.359375 527.417969 L 498.214844 430.117188 L 286.882812 430.117188 Z M 300.730469 527.417969 " fill-opacity="1" fill-rule="nonzero"/><g clip-path="url(#58958aa818)"><path fill="#ffffff" d="M 483.167969 557.484375 L 301.925781 557.484375 C 287.648438 557.484375 276.035156 545.871094 276.035156 531.59375 C 276.035156 529.289062 277.90625 527.417969 280.210938 527.417969 L 504.894531 527.417969 C 507.199219 527.417969 509.066406 529.289062 509.066406 531.59375 C 509.058594 545.871094 497.449219 557.484375 483.167969 557.484375 Z M 284.882812 535.765625 C 286.757812 543.429688 293.691406 549.136719 301.925781 549.136719 L 483.167969 549.136719 C 491.40625 549.136719 498.339844 543.429688 500.214844 535.765625 Z M 284.882812 535.765625 " fill-opacity="1" fill-rule="nonzero"/></g><path fill="#ffffff" d="M 392.542969 508.800781 C 375.984375 508.800781 362.511719 495.328125 362.511719 478.769531 C 362.511719 462.207031 375.984375 448.734375 392.542969 448.734375 C 409.105469 448.734375 422.578125 462.207031 422.578125 478.769531 C 422.578125 495.328125 409.113281 508.800781 392.542969 508.800781 Z M 392.542969 457.078125 C 380.585938 457.078125 370.855469 466.808594 370.855469 478.769531 C 370.855469 490.726562 380.585938 500.457031 392.542969 500.457031 C 404.503906 500.457031 414.234375 490.726562 414.234375 478.769531 C 414.234375 466.808594 404.503906 457.078125 392.542969 457.078125 Z M 392.542969 457.078125 " fill-opacity="1" fill-rule="nonzero"/><path fill="#ffffff" d="M 514.152344 356.117188 L 505.625 356.117188 C 501.640625 356.117188 498.425781 353.015625 498.128906 348.910156 L 497.738281 343.382812 C 496.304688 342.890625 494.898438 342.300781 493.527344 341.636719 L 489.339844 345.273438 C 486.226562 347.972656 481.757812 347.886719 478.9375 345.070312 L 472.910156 339.042969 C 470.09375 336.222656 470.007812 331.753906 472.707031 328.640625 L 476.34375 324.453125 C 475.679688 323.082031 475.09375 321.679688 474.597656 320.242188 L 469.070312 319.851562 C 464.964844 319.5625 461.863281 316.339844 461.863281 312.355469 L 461.863281 303.828125 C 461.863281 299.84375 464.964844 296.621094 469.070312 296.332031 L 474.597656 295.9375 C 475.09375 294.503906 475.679688 293.097656 476.34375 291.730469 L 472.707031 287.542969 C 470.007812 284.429688 470.09375 279.957031 472.910156 277.140625 L 478.9375 271.113281 C 481.757812 268.296875 486.226562 268.207031 489.335938 270.910156 L 493.519531 274.546875 C 494.890625 273.878906 496.296875 273.292969 497.730469 272.800781 L 498.121094 267.273438 C 498.410156 263.160156 501.636719 260.066406 505.617188 260.066406 L 514.144531 260.066406 C 518.128906 260.066406 521.351562 263.167969 521.644531 267.273438 L 522.035156 272.800781 C 523.46875 273.292969 524.875 273.878906 526.242188 274.546875 L 530.429688 270.910156 C 533.546875 268.207031 538.015625 268.296875 540.824219 271.113281 L 546.851562 277.140625 C 549.671875 279.957031 549.75 284.429688 547.054688 287.535156 L 543.417969 291.722656 C 544.085938 293.09375 544.671875 294.496094 545.164062 295.933594 L 550.691406 296.324219 C 554.800781 296.613281 557.902344 299.835938 557.902344 303.820312 L 557.902344 312.347656 C 557.902344 316.332031 554.800781 319.546875 550.691406 319.84375 L 545.164062 320.234375 C 544.671875 321.671875 544.085938 323.074219 543.417969 324.445312 L 547.054688 328.632812 C 549.757812 331.746094 549.671875 336.21875 546.851562 339.027344 L 540.824219 345.054688 C 538.007812 347.871094 533.539062 347.960938 530.421875 345.257812 L 526.234375 341.621094 C 524.867188 342.289062 523.460938 342.875 522.027344 343.367188 L 521.636719 348.894531 C 521.351562 353.015625 518.128906 356.117188 514.152344 356.117188 Z M 506.414062 347.769531 L 513.355469 347.769531 L 513.914062 339.910156 C 514.042969 338.113281 515.304688 336.609375 517.050781 336.160156 C 519.722656 335.476562 522.289062 334.414062 524.671875 333 C 526.222656 332.082031 528.175781 332.253906 529.539062 333.433594 L 535.492188 338.601562 L 540.40625 333.6875 L 535.242188 327.734375 C 534.058594 326.371094 533.886719 324.410156 534.804688 322.867188 C 536.226562 320.484375 537.285156 317.925781 537.964844 315.246094 C 538.40625 313.5 539.921875 312.238281 541.71875 312.109375 L 549.578125 311.550781 L 549.578125 304.609375 L 541.71875 304.050781 C 539.921875 303.921875 538.414062 302.660156 537.964844 300.914062 C 537.285156 298.242188 536.21875 295.679688 534.804688 293.296875 C 533.886719 291.746094 534.058594 289.789062 535.242188 288.425781 L 540.40625 282.472656 L 535.492188 277.5625 L 529.539062 282.726562 C 528.175781 283.90625 526.214844 284.082031 524.671875 283.160156 C 522.289062 281.742188 519.730469 280.683594 517.050781 280.003906 C 515.304688 279.558594 514.042969 278.046875 513.914062 276.25 L 513.355469 268.390625 L 506.414062 268.390625 L 505.859375 276.25 C 505.726562 278.046875 504.46875 279.554688 502.722656 280.003906 C 500.046875 280.683594 497.484375 281.746094 495.101562 283.160156 C 493.550781 284.082031 491.59375 283.90625 490.234375 282.726562 L 484.277344 277.5625 L 479.367188 282.472656 L 484.53125 288.425781 C 485.710938 289.789062 485.886719 291.753906 484.964844 293.296875 C 483.546875 295.671875 482.488281 298.234375 481.808594 300.914062 C 481.367188 302.660156 479.851562 303.921875 478.054688 304.050781 L 470.195312 304.609375 L 470.195312 311.550781 L 478.054688 312.109375 C 479.851562 312.238281 481.359375 313.5 481.808594 315.238281 C 482.488281 317.917969 483.554688 320.484375 484.964844 322.859375 C 485.886719 324.410156 485.710938 326.371094 484.53125 327.726562 L 479.367188 333.679688 L 484.277344 338.59375 L 490.234375 333.429688 C 491.59375 332.246094 493.550781 332.074219 495.101562 332.992188 C 497.484375 334.414062 500.046875 335.46875 502.722656 336.152344 C 504.46875 336.59375 505.726562 338.109375 505.859375 339.902344 Z M 506.414062 347.769531 " fill-opacity="1" fill-rule="nonzero"/><path fill="#ffffff" d="M 509.886719 330.039062 C 497.789062 330.039062 487.941406 320.191406 487.941406 308.09375 C 487.941406 295.996094 497.789062 286.152344 509.886719 286.152344 C 521.984375 286.152344 531.828125 295.996094 531.828125 308.09375 C 531.828125 320.191406 521.992188 330.039062 509.886719 330.039062 Z M 509.886719 294.492188 C 502.386719 294.492188 496.289062 300.589844 496.289062 308.085938 C 496.289062 315.585938 502.386719 321.683594 509.886719 321.683594 C 517.382812 321.683594 523.484375 315.585938 523.484375 308.085938 C 523.484375 300.597656 517.382812 294.492188 509.886719 294.492188 Z M 509.886719 294.492188 " fill-opacity="1" fill-rule="nonzero"/></svg>