<svg xmlns="http://www.w3.org/2000/svg" xmlns:xlink="http://www.w3.org/1999/xlink" width="1080" zoomAndPan="magnify" viewBox="0 0 810 809.999993" height="1080" preserveAspectRatio="xMidYMid meet" version="1.0"><defs><clipPath id="d53e8c23b7"><path d="M 108.480469 108.480469 L 701.519531 108.480469 L 701.519531 701.519531 L 108.480469 701.519531 Z M 108.480469 108.480469 " clip-rule="nonzero"/></clipPath><clipPath id="952cd39615"><path d="M 146.730469 108.480469 L 663.269531 108.480469 C 684.394531 108.480469 701.519531 125.605469 701.519531 146.730469 L 701.519531 663.269531 C 701.519531 684.394531 684.394531 701.519531 663.269531 701.519531 L 146.730469 701.519531 C 125.605469 701.519531 108.480469 684.394531 108.480469 663.269531 L 108.480469 146.730469 C 108.480469 125.605469 125.605469 108.480469 146.730469 108.480469 Z M 146.730469 108.480469 " clip-rule="nonzero"/></clipPath><clipPath id="54586e6c35"><path d="M 108.480469 108.480469 L 688.148438 108.480469 L 688.148438 688.148438 L 108.480469 688.148438 Z M 108.480469 108.480469 " clip-rule="nonzero"/></clipPath><clipPath id="dde91765d3"><path d="M 398.316406 108.480469 L 688.148438 398.316406 L 398.316406 688.148438 L 108.480469 398.316406 Z M 398.316406 108.480469 " clip-rule="nonzero"/></clipPath><clipPath id="da1d1d7d4e"><path d="M 108.480469 108.480469 L 688.230469 108.480469 L 688.230469 688.230469 L 108.480469 688.230469 Z M 108.480469 108.480469 " clip-rule="nonzero"/></clipPath></defs><g clip-path="url(#d53e8c23b7)"><g clip-path="url(#952cd39615)"><path fill="#24acad" d="M 108.480469 108.480469 L 701.519531 108.480469 L 701.519531 701.519531 L 108.480469 701.519531 Z M 108.480469 108.480469 " fill-opacity="1" fill-rule="nonzero"/></g></g><g clip-path="url(#54586e6c35)"><g clip-path="url(#dde91765d3)"><path fill="#166969" d="M 108.480469 108.480469 L 688.148438 108.480469 L 688.148438 688.148438 L 108.480469 688.148438 Z M 108.480469 108.480469 " fill-opacity="1" fill-rule="nonzero"/></g></g><g clip-path="url(#da1d1d7d4e)"><path fill="#ffffff" d="M 234.496094 108.480469 C 199.839844 108.480469 171.488281 136.835938 171.488281 171.488281 C 171.488281 206.140625 199.839844 234.496094 234.496094 234.496094 C 269.148438 234.496094 297.5 206.140625 297.5 171.488281 C 297.5 136.835938 269.148438 108.480469 234.496094 108.480469 Z M 448.714844 108.480469 L 448.714844 133.683594 L 322.703125 133.683594 L 322.703125 158.886719 L 662.9375 158.886719 L 662.9375 486.519531 L 335.304688 486.519531 L 335.304688 511.722656 L 442.414062 511.722656 L 373.109375 650.335938 L 398.308594 650.335938 L 461.316406 524.324219 L 524.324219 650.335938 L 549.523438 650.335938 L 480.21875 511.722656 L 675.539062 511.722656 C 682.476562 511.722656 688.136719 506.058594 688.136719 499.121094 L 688.136719 146.285156 C 688.136719 139.34375 682.476562 133.683594 675.539062 133.683594 L 473.917969 133.683594 L 473.917969 108.480469 Z M 234.496094 133.683594 C 255.511719 133.683594 272.296875 150.46875 272.296875 171.488281 C 272.296875 192.507812 255.511719 209.292969 234.496094 209.292969 C 213.476562 209.292969 196.691406 192.507812 196.691406 171.488281 C 196.691406 150.46875 213.476562 133.683594 234.496094 133.683594 Z M 177.789062 247.09375 C 139.640625 247.09375 108.480469 278.253906 108.480469 316.402344 L 108.480469 471.554688 C 108.433594 472.097656 108.433594 472.589844 108.480469 473.128906 L 108.480469 473.917969 C 108.433594 475.097656 108.582031 476.328125 108.875 477.460938 C 110.746094 496.511719 126.792969 511.722656 146.285156 511.722656 C 150.714844 511.722656 154.898438 510.785156 158.886719 509.359375 L 158.886719 644.035156 C 158.886719 668.253906 178.773438 688.136719 202.992188 688.136719 C 215.296875 688.136719 226.472656 682.96875 234.496094 674.75 C 242.519531 682.96875 253.691406 688.136719 265.996094 688.136719 C 290.214844 688.136719 310.101562 668.253906 310.101562 644.035156 L 310.101562 322.703125 L 448.714844 322.703125 C 469.4375 322.703125 486.519531 305.621094 486.519531 284.898438 C 486.519531 264.421875 469.882812 247.539062 449.503906 247.09375 C 449.257812 247.09375 448.960938 247.09375 448.714844 247.09375 L 272.296875 247.09375 C 267.425781 247.046875 262.996094 249.804688 260.878906 254.183594 L 234.496094 306.953125 L 208.109375 254.183594 C 205.992188 249.804688 201.5625 247.046875 196.691406 247.09375 Z M 177.789062 272.296875 L 188.816406 272.296875 L 223.074219 340.816406 C 225.140625 345.246094 229.621094 348.101562 234.496094 348.101562 C 239.367188 348.101562 243.847656 345.246094 245.914062 340.816406 L 280.171875 272.296875 L 448.714844 272.296875 C 449.109375 272.296875 449.503906 272.296875 449.898438 272.296875 C 456.441406 272.890625 461.316406 278.203125 461.316406 284.898438 C 461.316406 292.035156 455.851562 297.5 448.714844 297.5 L 297.5 297.5 C 290.558594 297.5 284.898438 303.160156 284.898438 310.101562 L 284.898438 644.035156 C 284.898438 654.617188 276.582031 662.9375 265.996094 662.9375 C 256.054688 662.9375 248.03125 655.652344 247.09375 646.003906 L 247.09375 642.851562 C 247.09375 642.457031 247.09375 642.066406 247.09375 641.671875 L 247.09375 511.722656 C 247.242188 508.078125 245.765625 504.582031 243.15625 502.121094 C 240.5 499.613281 236.90625 498.382812 233.3125 498.726562 C 232.773438 498.824219 232.230469 498.972656 231.738281 499.121094 C 225.878906 500.449219 221.746094 505.714844 221.894531 511.722656 L 221.894531 641.671875 C 221.84375 642.210938 221.84375 642.703125 221.894531 643.246094 L 221.894531 646.003906 C 220.957031 655.652344 212.933594 662.9375 202.992188 662.9375 C 192.410156 662.9375 184.089844 654.617188 184.089844 644.035156 L 184.089844 347.90625 C 184.1875 344.015625 182.464844 340.324219 179.460938 337.863281 C 176.507812 335.402344 172.523438 334.46875 168.730469 335.304688 C 162.875 336.632812 158.738281 341.898438 158.886719 347.90625 L 158.886719 471.949219 C 158.886719 472.34375 158.886719 472.734375 158.886719 473.128906 L 158.886719 473.917969 C 158.886719 481.054688 153.421875 486.519531 146.285156 486.519531 C 139.445312 486.519531 134.078125 481.449219 133.683594 474.707031 C 133.683594 474.460938 133.683594 474.164062 133.683594 473.917969 C 133.78125 473.128906 133.78125 472.34375 133.683594 471.554688 L 133.683594 316.402344 C 133.683594 291.890625 153.277344 272.296875 177.789062 272.296875 Z M 177.789062 272.296875 " fill-opacity="1" fill-rule="nonzero"/></g></svg>