<svg xmlns="http://www.w3.org/2000/svg" xmlns:xlink="http://www.w3.org/1999/xlink" width="1080" zoomAndPan="magnify" viewBox="0 0 810 809.999993" height="1080" preserveAspectRatio="xMidYMid meet" version="1.0"><defs><clipPath id="81920e0ffb"><path d="M 243 243 L 574.472656 243 L 574.472656 574.472656 L 243 574.472656 Z M 243 243 " clip-rule="nonzero"/></clipPath><clipPath id="514a36eed8"><path d="M 281.25 243 L 536.222656 243 C 546.367188 243 556.097656 247.03125 563.269531 254.203125 C 570.441406 261.375 574.472656 271.105469 574.472656 281.25 L 574.472656 536.222656 C 574.472656 546.367188 570.441406 556.097656 563.269531 563.269531 C 556.097656 570.441406 546.367188 574.472656 536.222656 574.472656 L 281.25 574.472656 C 271.105469 574.472656 261.375 570.441406 254.203125 563.269531 C 247.03125 556.097656 243 546.367188 243 536.222656 L 243 281.25 C 243 271.105469 247.03125 261.375 254.203125 254.203125 C 261.375 247.03125 271.105469 243 281.25 243 Z M 281.25 243 " clip-rule="nonzero"/></clipPath><clipPath id="304051250d"><path d="M 243 243 L 567 243 L 567 567 L 243 567 Z M 243 243 " clip-rule="nonzero"/></clipPath><clipPath id="ee0007f868"><path d="M 405 243 L 567 405 L 405 567 L 243 405 Z M 405 243 " clip-rule="nonzero"/></clipPath><clipPath id="6a0d9b22d6"><path d="M 243 243 L 567 243 L 567 567 L 243 567 Z M 243 243 " clip-rule="nonzero"/></clipPath></defs><g clip-path="url(#81920e0ffb)"><g clip-path="url(#514a36eed8)"><path fill="#24acad" d="M 243 243 L 574.472656 243 L 574.472656 574.472656 L 243 574.472656 Z M 243 243 " fill-opacity="1" fill-rule="nonzero"/></g></g><g clip-path="url(#304051250d)"><g clip-path="url(#ee0007f868)"><path fill="#166969" d="M 243 243 L 567 243 L 567 567 L 243 567 Z M 243 243 " fill-opacity="1" fill-rule="nonzero"/></g></g><g clip-path="url(#6a0d9b22d6)"><path fill="#ffffff" d="M 313.433594 243 C 294.066406 243 278.21875 258.847656 278.21875 278.21875 C 278.21875 297.585938 294.066406 313.433594 313.433594 313.433594 C 332.804688 313.433594 348.652344 297.585938 348.652344 278.21875 C 348.652344 258.847656 332.804688 243 313.433594 243 Z M 433.175781 243 L 433.175781 257.085938 L 362.738281 257.085938 L 362.738281 271.175781 L 552.914062 271.175781 L 552.914062 454.304688 L 369.78125 454.304688 L 369.78125 468.390625 L 429.652344 468.390625 L 390.914062 545.871094 L 405 545.871094 L 440.21875 475.433594 L 475.433594 545.871094 L 489.523438 545.871094 L 450.78125 468.390625 L 559.957031 468.390625 C 563.835938 468.390625 567 465.226562 567 461.347656 L 567 264.128906 C 567 260.25 563.835938 257.085938 559.957031 257.085938 L 447.261719 257.085938 L 447.261719 243 Z M 313.433594 257.085938 C 325.183594 257.085938 334.566406 266.46875 334.566406 278.21875 C 334.566406 289.964844 325.183594 299.347656 313.433594 299.347656 C 301.6875 299.347656 292.304688 289.964844 292.304688 278.21875 C 292.304688 266.46875 301.6875 257.085938 313.433594 257.085938 Z M 281.738281 320.476562 C 260.417969 320.476562 243 337.894531 243 359.21875 L 243 445.941406 C 242.972656 446.242188 242.972656 446.519531 243 446.820312 L 243 447.261719 C 242.972656 447.921875 243.054688 448.609375 243.21875 449.242188 C 244.265625 459.890625 253.234375 468.390625 264.128906 468.390625 C 266.605469 468.390625 268.945312 467.867188 271.175781 467.070312 L 271.175781 542.347656 C 271.175781 555.882812 282.289062 567 295.824219 567 C 302.703125 567 308.949219 564.109375 313.433594 559.515625 C 317.917969 564.109375 324.164062 567 331.042969 567 C 344.582031 567 355.695312 555.882812 355.695312 542.347656 L 355.695312 362.738281 L 433.175781 362.738281 C 444.757812 362.738281 454.304688 353.191406 454.304688 341.609375 C 454.304688 330.164062 445.003906 320.726562 433.613281 320.476562 C 433.476562 320.476562 433.3125 320.476562 433.175781 320.476562 L 334.566406 320.476562 C 331.839844 320.449219 329.363281 321.992188 328.183594 324.441406 L 313.433594 353.933594 L 298.6875 324.441406 C 297.503906 321.992188 295.027344 320.449219 292.304688 320.476562 Z M 281.738281 334.566406 L 287.902344 334.566406 L 307.050781 372.863281 C 308.207031 375.339844 310.710938 376.9375 313.433594 376.9375 C 316.160156 376.9375 318.664062 375.339844 319.816406 372.863281 L 338.96875 334.566406 L 433.175781 334.566406 C 433.394531 334.566406 433.613281 334.566406 433.835938 334.566406 C 437.492188 334.894531 440.21875 337.867188 440.21875 341.609375 C 440.21875 345.597656 437.164062 348.652344 433.175781 348.652344 L 348.652344 348.652344 C 344.773438 348.652344 341.609375 351.816406 341.609375 355.695312 L 341.609375 542.347656 C 341.609375 548.261719 336.957031 552.914062 331.042969 552.914062 C 325.484375 552.914062 321 548.839844 320.476562 543.449219 L 320.476562 541.6875 C 320.476562 541.46875 320.476562 541.246094 320.476562 541.027344 L 320.476562 468.390625 C 320.5625 466.355469 319.734375 464.402344 318.277344 463.027344 C 316.792969 461.621094 314.78125 460.933594 312.773438 461.128906 C 312.472656 461.183594 312.167969 461.265625 311.894531 461.347656 C 308.621094 462.089844 306.308594 465.035156 306.390625 468.390625 L 306.390625 541.027344 C 306.363281 541.328125 306.363281 541.605469 306.390625 541.90625 L 306.390625 543.449219 C 305.867188 548.839844 301.382812 552.914062 295.824219 552.914062 C 289.910156 552.914062 285.261719 548.261719 285.261719 542.347656 L 285.261719 376.824219 C 285.316406 374.652344 284.351562 372.589844 282.675781 371.214844 C 281.023438 369.835938 278.796875 369.316406 276.675781 369.78125 C 273.402344 370.527344 271.089844 373.46875 271.175781 376.824219 L 271.175781 446.160156 C 271.175781 446.378906 271.175781 446.601562 271.175781 446.820312 L 271.175781 447.261719 C 271.175781 451.25 268.121094 454.304688 264.128906 454.304688 C 260.304688 454.304688 257.308594 451.46875 257.085938 447.699219 C 257.085938 447.5625 257.085938 447.398438 257.085938 447.261719 C 257.140625 446.820312 257.140625 446.378906 257.085938 445.941406 L 257.085938 359.21875 C 257.085938 345.515625 268.039062 334.566406 281.738281 334.566406 Z M 281.738281 334.566406 " fill-opacity="1" fill-rule="nonzero"/></g></svg>